<svg width="18" height="18" viewBox="0 0 18 18" fill="none" xmlns="http://www.w3.org/2000/svg">
<g clip-path="url(#clip0_42_18751)">
<path d="M5.8558 6.31529C5.73879 6.4353 5.74179 6.62431 5.8588 6.74131C5.9158 6.79832 5.99381 6.82832 6.06881 6.82832C6.14682 6.82832 6.22482 6.79832 6.28182 6.73831C6.39883 6.62101 6.39883 6.432 6.28182 6.31529C6.16182 6.19829 5.97251 6.19829 5.8558 6.31529Z" fill="black"/>
<path d="M4.99791 13.9686C4.8809 14.0859 4.8809 14.2776 4.99791 14.3946C5.05491 14.4516 5.13292 14.4816 5.20792 14.4816C5.28593 14.4816 5.36393 14.4516 5.42093 14.3946C5.53794 14.2776 5.53794 14.0859 5.42093 13.9686C5.30393 13.8516 5.11522 13.8516 4.99791 13.9686Z" fill="black"/>
<path d="M5.01354 7.16783C4.89653 7.28514 4.89653 7.47685 5.01354 7.59385C5.07354 7.65086 5.14854 7.68086 5.22355 7.68086C5.30155 7.68086 5.37955 7.65086 5.43956 7.59085C5.55356 7.47385 5.55356 7.28184 5.43656 7.16783C5.31985 7.05083 5.12754 7.05083 5.01354 7.16783Z" fill="black"/>
<path d="M5.84947 14.8182C5.73247 14.9355 5.73247 15.1272 5.84947 15.2442C5.90648 15.3012 5.98448 15.3312 6.05948 15.3312C6.13749 15.3312 6.21549 15.3012 6.27249 15.2442C6.3895 15.1272 6.3895 14.9355 6.27249 14.8182C6.15549 14.7012 5.96618 14.7012 5.84947 14.8182Z" fill="black"/>
<path d="M7.53288 15.6846C7.41888 15.8043 7.42188 15.9933 7.53888 16.1073C7.59888 16.1643 7.67389 16.1943 7.74889 16.1943C7.8269 16.1943 7.9049 16.1643 7.9649 16.1013C8.07891 15.9843 8.07891 15.795 7.9589 15.6783C7.8389 15.5646 7.64989 15.5646 7.53288 15.6846Z" fill="black"/>
<path d="M6.70066 5.46298C6.58366 5.58268 6.58366 5.77199 6.70366 5.889C6.76067 5.9457 6.83567 5.976 6.91368 5.976C6.99168 5.976 7.06668 5.9457 7.12669 5.886C7.24369 5.76869 7.24369 5.57968 7.12369 5.46298C7.00668 5.34567 6.81797 5.34567 6.70066 5.46298Z" fill="black"/>
<path d="M6.69713 15.6669C6.58012 15.7839 6.58012 15.9732 6.69713 16.0929C6.75413 16.1499 6.83214 16.1799 6.90714 16.1799C6.98514 16.1799 7.06015 16.1499 7.12015 16.0929C7.23716 15.9732 7.23716 15.7839 7.12015 15.6669C7.00315 15.5499 6.81114 15.5499 6.69713 15.6669Z" fill="black"/>
<path d="M4.16551 8.01917C4.0485 8.13648 4.0485 8.32819 4.16851 8.44519C4.22551 8.50219 4.30051 8.5322 4.37852 8.5322C4.45652 8.5322 4.53153 8.50219 4.59153 8.44219C4.70854 8.32519 4.70854 8.13618 4.58853 8.01917C4.47152 7.90246 4.28251 7.90246 4.16551 8.01917Z" fill="black"/>
<path d="M2.45104 11.4249C2.33403 11.5419 2.33403 11.7309 2.45104 11.8479C2.51104 11.9076 2.58604 11.9379 2.66405 11.9379C2.74205 11.9379 2.81705 11.9076 2.87706 11.8479C2.99406 11.7306 2.99406 11.5416 2.87706 11.4249C2.76005 11.3076 2.56804 11.3076 2.45104 11.4249Z" fill="black"/>
<path d="M2.47838 9.7235C2.36137 9.8432 2.36137 10.0322 2.47838 10.1495C2.53838 10.2062 2.61339 10.2365 2.69139 10.2365C2.76639 10.2365 2.8444 10.2062 2.9014 10.1462C3.01841 10.0292 3.01841 9.8402 2.9014 9.7235C2.78439 9.60649 2.59238 9.60649 2.47838 9.7235Z" fill="black"/>
<path d="M1.63072 10.5753C1.51372 10.695 1.51372 10.8843 1.63072 11.0013C1.69073 11.058 1.76573 11.0883 1.84373 11.0883C1.91874 11.0883 1.99674 11.058 2.05674 10.9983C2.17375 10.881 2.17075 10.692 2.05374 10.5753C1.93674 10.458 1.74773 10.458 1.63072 10.5753Z" fill="black"/>
<path d="M7.54869 4.61142C7.43169 4.73112 7.43169 4.92013 7.54869 5.03744C7.6087 5.09414 7.6837 5.12444 7.7587 5.12444C7.83671 5.12444 7.91471 5.09414 7.97471 5.03444C8.08872 4.91713 8.08872 4.72812 7.97171 4.61142C7.85471 4.49411 7.663 4.49411 7.54869 4.61142Z" fill="black"/>
<path d="M3.3026 12.2733C3.18559 12.3903 3.18559 12.5793 3.3026 12.696C3.3626 12.756 3.4376 12.783 3.51561 12.783C3.59061 12.783 3.66862 12.756 3.72862 12.696C3.84562 12.579 3.84562 12.39 3.72862 12.2733C3.60861 12.1563 3.4196 12.1563 3.3026 12.2733Z" fill="black"/>
<path d="M4.15025 13.1229C4.03325 13.2399 4.03325 13.4289 4.15025 13.5456C4.21026 13.6056 4.28526 13.6326 4.36327 13.6326C4.43827 13.6326 4.51627 13.6056 4.57328 13.5456C4.69028 13.4286 4.69028 13.2396 4.57328 13.1229C4.45627 13.0059 4.26756 13.0059 4.15025 13.1229Z" fill="black"/>
<path d="M3.32064 8.87171C3.20364 8.99171 3.20664 9.18072 3.32364 9.29803C3.38065 9.35473 3.45865 9.38503 3.53365 9.38503C3.61166 9.38503 3.68966 9.35473 3.74667 9.29473C3.86367 9.17772 3.86367 8.98871 3.74366 8.87171C3.62666 8.755 3.43765 8.755 3.32064 8.87171Z" fill="black"/>
<path d="M9.21091 13.966C9.09391 14.0831 9.09691 14.2751 9.21691 14.3891C9.27391 14.4458 9.34892 14.4731 9.42392 14.4731C9.50193 14.4731 9.57993 14.4428 9.63993 14.3828C9.75394 14.2658 9.75394 14.0741 9.63393 13.96C9.51723 13.843 9.32492 13.8457 9.21091 13.966Z" fill="black"/>
<path d="M13.3984 9.66624C13.2814 9.78325 13.2844 9.97526 13.4044 10.0893C13.4614 10.146 13.5364 10.1763 13.6144 10.1763C13.6924 10.1763 13.7704 10.146 13.8274 10.0863C13.9444 9.96625 13.9414 9.77425 13.8214 9.66024C13.7044 9.54323 13.5154 9.54593 13.3984 9.66624Z" fill="black"/>
<path d="M11.7226 11.3859C11.6056 11.5056 11.6086 11.6946 11.7286 11.8086C11.7856 11.8656 11.8606 11.8956 11.9356 11.8956C12.0136 11.8956 12.0916 11.8656 12.1517 11.8056C12.2687 11.6859 12.2657 11.4936 12.1457 11.3796C12.0286 11.2629 11.8366 11.2659 11.7226 11.3859Z" fill="black"/>
<path d="M12.5586 10.5276C12.4416 10.6446 12.4446 10.8336 12.5646 10.9506C12.6216 11.0073 12.6966 11.0346 12.7716 11.0346C12.8526 11.0346 12.9306 11.0043 12.9876 10.9443C13.1046 10.8246 13.1016 10.6356 12.9816 10.5213C12.8646 10.4046 12.6729 10.4073 12.5586 10.5276Z" fill="black"/>
<path d="M14.2343 8.80548C14.1173 8.92549 14.1203 9.1145 14.2403 9.2315C14.2974 9.28851 14.3724 9.31551 14.4504 9.31551C14.5284 9.31551 14.6064 9.28551 14.6634 9.2255C14.7804 9.1055 14.7774 8.91649 14.6574 8.79948C14.5404 8.68548 14.3484 8.68848 14.2343 8.80548Z" fill="black"/>
<path d="M15.1477 6.00042C15.3134 6.00042 15.4477 5.8661 15.4477 5.70041C15.4477 5.53471 15.3134 5.40039 15.1477 5.40039C14.982 5.40039 14.8477 5.53471 14.8477 5.70041C14.8477 5.8661 14.982 6.00042 15.1477 6.00042Z" fill="black"/>
<path d="M8.37497 14.8237C8.25797 14.9434 8.26097 15.1324 8.38097 15.2497C8.43798 15.3064 8.51298 15.3334 8.58798 15.3334C8.66599 15.3334 8.74399 15.3034 8.804 15.2434C8.918 15.1237 8.918 14.9347 8.798 14.8204C8.67799 14.7037 8.48898 14.7067 8.37497 14.8237Z" fill="black"/>
<path d="M15.1477 8.40081C15.3134 8.40081 15.4477 8.26649 15.4477 8.1008C15.4477 7.9351 15.3134 7.80078 15.1477 7.80078C14.982 7.80078 14.8477 7.9351 14.8477 8.1008C14.8477 8.26649 14.982 8.40081 15.1477 8.40081Z" fill="black"/>
<path d="M15.1477 7.20062C15.3134 7.20062 15.4477 7.0663 15.4477 6.9006C15.4477 6.73491 15.3134 6.60059 15.1477 6.60059C14.982 6.60059 14.8477 6.73491 14.8477 6.9006C14.8477 7.0663 14.982 7.20062 15.1477 7.20062Z" fill="black"/>
<path d="M10.0508 13.1043C9.93375 13.2243 9.93675 13.4133 10.0568 13.5303C10.1138 13.5873 10.1888 13.6143 10.2638 13.6143C10.3418 13.6143 10.4198 13.5843 10.4798 13.5243C10.5968 13.4043 10.5938 13.2153 10.4738 13.0983C10.3535 12.9843 10.1645 12.9873 10.0508 13.1043Z" fill="black"/>
<path d="M11.975 2.70041C11.975 2.5354 11.84 2.40039 11.675 2.40039C11.507 2.40039 11.375 2.5354 11.375 2.70041C11.375 2.86541 11.507 3.00042 11.675 3.00042C11.84 3.00042 11.975 2.86541 11.975 2.70041Z" fill="black"/>
<path d="M8.39096 3.75963C8.27395 3.87664 8.27695 4.06834 8.39396 4.18565C8.45096 4.24235 8.52896 4.27265 8.60397 4.27265C8.68197 4.27265 8.75997 4.24235 8.81698 4.18235C8.93398 4.06534 8.93398 3.87634 8.81698 3.75963C8.69697 3.64262 8.50796 3.64262 8.39096 3.75963Z" fill="black"/>
<path d="M9.23582 2.90687C9.11881 3.02687 9.11881 3.21588 9.23882 3.33289C9.29582 3.38989 9.37383 3.41989 9.44883 3.41989C9.52683 3.41989 9.60184 3.38989 9.66184 3.32989C9.77885 3.21288 9.77885 3.02387 9.65884 2.90687C9.54184 2.79016 9.35253 2.79016 9.23582 2.90687Z" fill="black"/>
<path d="M10.4758 2.40039C10.3078 2.40039 10.1758 2.5354 10.1758 2.70041C10.1758 2.86541 10.3078 3.00042 10.4758 3.00042C10.6408 3.00042 10.7758 2.86541 10.7758 2.70041C10.7758 2.5354 10.6408 2.40039 10.4758 2.40039Z" fill="black"/>
<path d="M10.8867 12.246C10.7697 12.3633 10.7727 12.555 10.8927 12.669C10.9497 12.726 11.0247 12.753 11.0997 12.753C11.1777 12.753 11.2557 12.723 11.3157 12.663C11.4297 12.5457 11.4297 12.354 11.3097 12.24C11.1927 12.1233 11.0004 12.1263 10.8867 12.246Z" fill="black"/>
<path d="M17.7617 0.0879794C17.6444 -0.0293265 17.4548 -0.0293265 17.3375 0.0879794L16.225 1.20013H9.24009L0.458653 10.0539C0.258543 10.2537 0.148438 10.5198 0.148438 10.8024C0.148438 11.085 0.258543 11.3511 0.458653 11.551L6.59876 17.6911C6.80487 17.8972 7.07518 18.0001 7.3461 18.0001C7.61791 18.0001 7.89032 17.8963 8.09853 17.6881L16.6493 8.90632V1.62436L17.7614 0.512201C17.8787 0.394895 17.8787 0.205285 17.7617 0.0879794ZM16.0495 8.66271L7.67161 17.2668C7.4931 17.4456 7.20209 17.4456 7.02298 17.2668L0.882874 11.1267C0.79617 11.04 0.748467 10.9248 0.748467 10.8024C0.748467 10.68 0.79617 10.5648 0.883774 10.4772L9.49 1.80016H15.6253L14.1753 3.25014C13.938 3.09293 13.6545 3.00023 13.3494 3.00023C12.5223 3.00023 11.8493 3.67316 11.8493 4.5003C11.8493 5.32744 12.5223 6.00037 13.3494 6.00037C14.1765 6.00037 14.8495 5.32744 14.8495 4.5003C14.8495 4.19518 14.7568 3.91167 14.5996 3.67436L16.0495 2.22439V8.66271ZM14.2494 4.5003C14.2494 4.99652 13.8456 5.40034 13.3494 5.40034C12.8532 5.40034 12.4494 4.99652 12.4494 4.5003C12.4494 4.00408 12.8532 3.60026 13.3494 3.60026C13.488 3.60026 13.6176 3.63446 13.7349 3.69056L13.1373 4.28819C13.02 4.4055 13.02 4.5951 13.1373 4.71241C13.1958 4.77091 13.2726 4.80031 13.3494 4.80031C13.4262 4.80031 13.503 4.77091 13.5615 4.71241L14.1591 4.11478C14.2152 4.23209 14.2494 4.36169 14.2494 4.5003Z" fill="black"/>
</g>
<defs>
<clipPath id="clip0_42_18751">
<rect width="18" height="18" rx="5" fill="white"/>
</clipPath>
</defs>
</svg>
