<svg width="18" height="18" fill="none" xmlns="http://www.w3.org/2000/svg"><g clip-path="url(#a)" fill="#fff" opacity=".8"><path d="M5.856 6.315a.302.302 0 0 0 .213.513c.078 0 .156-.03.213-.09a.299.299 0 0 0 0-.423.302.302 0 0 0-.426 0ZM4.998 13.969a.3.3 0 1 0 .423.425.3.3 0 0 0-.423-.425ZM5.014 7.168a.302.302 0 0 0 0 .426c.06.057.135.087.21.087.078 0 .156-.03.216-.09a.302.302 0 0 0-.003-.423.299.299 0 0 0-.423 0ZM5.85 14.818a.3.3 0 1 0 .423.425.3.3 0 0 0-.424-.425ZM7.533 15.685a.301.301 0 0 0 .216.51c.078 0 .156-.03.216-.094a.299.299 0 0 0-.006-.423.303.303 0 0 0-.426.007ZM6.7 5.463a.3.3 0 0 0 .004.426.296.296 0 0 0 .423-.003.296.296 0 0 0-.003-.423.298.298 0 0 0-.423 0ZM6.697 15.667a.3.3 0 1 0 .423.425.3.3 0 0 0-.423-.425ZM4.166 8.02a.3.3 0 0 0 .003.425.295.295 0 0 0 .423-.003.296.296 0 0 0-.003-.423.3.3 0 0 0-.423 0ZM2.451 11.425a.299.299 0 0 0 0 .423.299.299 0 0 0 .426 0 .299.299 0 0 0 0-.423.302.302 0 0 0-.426 0ZM2.478 9.723a.302.302 0 0 0 0 .426c.06.057.135.088.213.088.075 0 .153-.03.21-.09a.299.299 0 1 0-.423-.423ZM1.63 10.575a.302.302 0 0 0 0 .426c.06.057.136.087.214.087a.299.299 0 0 0 .21-.513.298.298 0 0 0-.423 0ZM7.549 4.611a.302.302 0 0 0 0 .426c.06.057.135.087.21.087.078 0 .156-.03.216-.09a.302.302 0 0 0-.003-.423.298.298 0 0 0-.423 0ZM3.303 12.273a.298.298 0 0 0 .213.51.298.298 0 0 0 .213-.51.302.302 0 0 0-.426 0ZM4.15 13.123a.298.298 0 0 0 .213.51.298.298 0 1 0-.213-.51ZM3.32 8.872a.303.303 0 0 0 .214.513c.078 0 .156-.03.213-.09a.296.296 0 0 0-.003-.423.3.3 0 0 0-.423 0ZM9.21 13.966a.296.296 0 0 0 .007.423.292.292 0 0 0 .207.084.299.299 0 0 0 .21-.513.296.296 0 0 0-.423.006ZM13.398 9.666a.296.296 0 0 0 .006.423.296.296 0 0 0 .423-.003.3.3 0 0 0-.006-.426.296.296 0 0 0-.423.006ZM11.723 11.386a.296.296 0 0 0 .006.423.293.293 0 0 0 .207.087.3.3 0 0 0 .21-.516.297.297 0 0 0-.423.006ZM12.559 10.528a.296.296 0 0 0 .006.423.292.292 0 0 0 .207.084c.08 0 .159-.03.216-.09a.296.296 0 0 0-.006-.424.296.296 0 0 0-.423.007ZM14.234 8.805a.3.3 0 1 0 .428.42.3.3 0 0 0-.428-.42ZM15.148 6a.3.3 0 1 0 0-.6.3.3 0 0 0 0 .6ZM8.375 14.824a.3.3 0 1 0 .428.42.3.3 0 0 0-.428-.42ZM15.148 8.4a.3.3 0 1 0 0-.6.3.3 0 0 0 0 .6ZM15.148 7.2a.3.3 0 1 0 0-.6.3.3 0 0 0 0 .6ZM10.05 13.104a.3.3 0 1 0 .43.42.3.3 0 1 0-.43-.42ZM11.975 2.7a.3.3 0 0 0-.3-.3c-.168 0-.3.135-.3.3 0 .165.132.3.3.3a.3.3 0 0 0 .3-.3ZM8.391 3.76a.302.302 0 0 0 .213.513c.078 0 .156-.03.213-.09a.298.298 0 0 0 0-.423.302.302 0 0 0-.426 0ZM9.236 2.907a.3.3 0 0 0 .003.426.298.298 0 0 0 .423-.003.296.296 0 0 0-.003-.423.3.3 0 0 0-.423 0ZM10.476 2.4c-.168 0-.3.135-.3.3 0 .165.132.3.3.3a.3.3 0 0 0 .3-.3.3.3 0 0 0-.3-.3ZM10.887 12.246a.296.296 0 0 0 .006.423.29.29 0 0 0 .207.084.299.299 0 1 0-.213-.507Z"/><path d="M17.762.088a.3.3 0 0 0-.425 0L16.225 1.2H9.24L.46 10.054c-.2.2-.31.466-.31.748 0 .283.11.55.31.749l6.14 6.14a1.061 1.061 0 0 0 1.5-.003l8.55-8.782V1.624L17.761.512a.3.3 0 0 0 0-.424Zm-1.713 8.575-8.377 8.604a.46.46 0 0 1-.649 0l-6.14-6.14a.456.456 0 0 1 0-.65L9.49 1.8h6.135l-1.45 1.45A1.49 1.49 0 0 0 13.35 3c-.827 0-1.5.673-1.5 1.5s.673 1.5 1.5 1.5c.828 0 1.5-.673 1.5-1.5a1.49 1.49 0 0 0-.25-.826l1.45-1.45v6.439ZM14.25 4.5a.901.901 0 0 1-1.8 0c0-.496.404-.9.9-.9a.89.89 0 0 1 .386.09l-.598.598a.3.3 0 1 0 .425.424l.597-.597a.89.89 0 0 1 .09.385Z"/></g><defs><clipPath id="a"><rect width="18" height="18" rx="5" fill="#fff"/></clipPath></defs></svg>