<svg width="63" height="54" fill="none" xmlns="http://www.w3.org/2000/svg"><path fill-rule="evenodd" clip-rule="evenodd" d="M27.656.168C19.358 1.354 12.94 4.95 9.043 10.595c-2.09 3.03-2.88 5.749-3.037 10.455-.097 2.925-.174 3.543-.498 3.97-.43.57-.965 1.875-1.161 2.831-.127.616-.156.634-1.03.634-1.133 0-2.238.46-2.88 1.2-.41.473-.483.738-.415 1.51.128 1.454 1.106 2.259 2.991 2.464l.942.102L6.47 40.29c4.525 11.752 4.465 11.631 6.337 12.708C14.574 54.014 14.313 54 31.489 54c17.175 0 16.915.014 18.683-1.002 1.87-1.076 1.848-1.03 6.76-13.806l2.088-5.43.953-.104c1.933-.21 3.027-1.18 3.027-2.681 0-1.384-1.486-2.492-3.34-2.492-.874 0-.903-.018-1.029-.634-.202-.982-.737-2.27-1.186-2.85-.353-.458-.407-.868-.41-3.126-.008-4.327-.703-7.22-2.467-10.268-2.27-3.923-6.848-7.62-11.901-9.611-1.624-.64-4.024-1.29-6.068-1.642-2.185-.377-6.917-.475-8.943-.186Zm7.665 1.636c8.06.984 15.284 5.701 18.193 11.878.963 2.046 1.395 4.195 1.395 6.935 0 2.392-.013 2.467-.411 2.297-.227-.096-.744-.175-1.148-.175-.622 0-.759-.07-.88-.454-.08-.25-.339-.672-.577-.937-.353-.393-.44-.772-.466-2.038-.027-1.304-.126-1.713-.61-2.536-1.074-1.821-2.457-2.79-4.24-2.967-1.017-.102-1.092-.144-1.357-.757-.378-.873-1.018-1.38-2.434-1.925-1.04-.402-1.442-.457-3.313-.462-1.78-.004-2.303.058-3.191.383-1.367.5-1.974.952-2.538 1.893-.54.9-.4.871-3.894.815-.342-.005-.504-.142-.607-.515-.204-.738-1.424-1.72-2.706-2.18-1.532-.55-4.862-.563-6.36-.024-1.241.445-2.462 1.404-2.694 2.113-.157.48-.275.552-.985.595-1.64.1-3.23 1.184-4.252 2.902-.563.945-.668 1.33-.707 2.595-.037 1.196-.129 1.568-.474 1.917a4.168 4.168 0 0 0-.691 1.008c-.192.42-.39.575-.738.575-.261 0-.721.074-1.022.164l-.546.165v-2.462c0-5.027 1.794-9.034 5.618-12.545C19.128 3.065 26.999.79 35.32 1.804ZM25.92 12.633c1.233.485 1.6 1.02 1.275 1.861-.129.333-.168.813-.088 1.067.133.421.215.454.941.377l.796-.085-.513.822c-.282.452-.561 1.167-.621 1.588-.097.68-.479 1.272-.479.743 0-.388-1.09-1.34-1.92-1.675-1.1-.446-2.779-.443-3.95.007-.942.362-1.881 1.277-2.126 2.072-.14.458-.173.468-1.13.338a14.53 14.53 0 0 0-3.838-.002l-.935.133.14-.947c.353-2.382 2.757-4.278 4.272-3.369.228.137.623.248.88.248.759 0 .992-.386.836-1.385-.131-.843-.102-.924.506-1.385 1.297-.982 4.023-1.17 5.954-.409Zm16.215.023c1.17.473 1.465 1.001 1.125 2.013-.297.884-.052 1.313.746 1.308.318-.002.817-.153 1.11-.335.81-.502 1.581-.424 2.53.255.954.685 1.696 1.93 1.879 3.155l.128.853-.938-.145c-1.181-.183-2.772-.186-4.078-.01-.882.12-1.011.1-1.011-.154 0-.574-1.076-1.748-1.994-2.175-1.54-.716-3.759-.544-5.108.396-.507.353-1.202 1.431-1.202 1.864 0 .496-.287.553-1.201.241-.542-.184-1.456-.285-2.684-.294l-1.863-.015v-.542c0-1.38 1.622-3.448 2.905-3.703.33-.066.834 0 1.276.167 1.482.561 2.108.24 1.88-.964-.187-.994-.01-1.375.835-1.79 1.563-.766 3.947-.82 5.665-.125Zm-17.817 6.048c.802.326 1.2.867 1.206 1.64.006 1.02-.86 1.72-2.13 1.72-1.22 0-2.337-.849-2.337-1.775 0-.486.162-.753.724-1.2.774-.614 1.647-.746 2.537-.385Zm16.668.386c1.518 1.205.496 2.974-1.718 2.974-1.593 0-2.544-1.538-1.674-2.707.755-1.015 2.297-1.136 3.392-.267Zm-22.042 2.57c1.124.521 1.414 1.059 1.089 2.022-.235.697-.224.831.092 1.108.476.418.802.398 1.738-.107.43-.233.917-.423 1.081-.423.558 0 1.674.674 2.239 1.351.466.56 1.197 2.232 1.197 2.74 0 .074-1.34.134-2.977.134h-2.976l-.421-.655c-1.563-2.432-5.885-2.505-7.475-.126l-.522.78H6.365v-.476c0-1.242 1.282-2.972 2.605-3.515.613-.252.712-.245 1.692.12l1.04.387.456-.362c.413-.327.431-.424.202-1.032-.354-.937-.021-1.43 1.33-1.975.96-.387 1.283-.43 2.807-.372 1.217.046 1.934.163 2.446.401Zm14.625-.18c1.622.538 2.01 1.141 1.552 2.41-.165.458-.13.614.195.872.386.307.385.34-.05 1.3-.245.543-.477 1.018-.515 1.057-.038.04-.286-.09-.55-.287-.674-.503-1.914-.883-2.864-.878-.834.004-2.453.496-2.708.823-.269.345-.486.191-.866-.616-.208-.441-.47-.895-.583-1.009-.137-.139-.09-.297.145-.483.277-.22.32-.471.214-1.23-.123-.869-.088-.988.397-1.348.293-.217.901-.498 1.351-.626 1.109-.314 3.315-.306 4.282.015Zm15.502.141c1.271.47 1.74 1.103 1.378 1.859-.372.776-.275 1.275.285 1.478.424.153.673.107 1.496-.276.888-.412 1.053-.438 1.63-.248 1.325.435 2.754 2.29 2.754 3.574v.477l-2.928-.006-2.928-.006-.638-.871c-1.096-1.496-3.332-2.055-5.332-1.334-.955.344-1.945 1.179-2.143 1.807-.13.409-.136.41-3.087.41-1.627 0-2.958-.06-2.958-.134 0-.073.144-.574.321-1.112.4-1.222 1.32-2.3 2.324-2.73l.77-.33.933.394c.779.328 1.01.36 1.405.192.434-.184.46-.281.328-1.205-.137-.963-.117-1.025.492-1.476.817-.606 1.714-.827 3.434-.846 1.038-.012 1.654.084 2.464.383ZM17.596 27.91c.866.444.53.576-1.474.576h-1.954l.49-.414c.752-.635 1.894-.699 2.938-.162Zm14.591-.21c.377.124.817.352.978.506.268.257.132.28-1.668.28-2.147 0-2.406-.176-1.06-.718.88-.355.887-.355 1.75-.069Zm15.904.38.528.406h-1.983c-2.16 0-2.388-.148-1.084-.706.894-.383 1.791-.277 2.54.3Zm12.545 2.333c.538.387.575.892.095 1.312-.338.297-1.523.31-29.205.31-26.55 0-28.885-.023-29.243-.28-.704-.506-.366-1.323.675-1.63.176-.051 13.124-.08 28.774-.064 27.656.03 28.468.04 28.904.352Zm-3.81 3.478c0 .463-6.027 15.754-6.505 16.506-.635.998-1.662 1.636-3.077 1.911-.666.13-5.625.172-16.288.137l-15.33-.05-.994-.388c-1.033-.404-1.837-1.108-2.257-1.977-.38-.786-6.223-15.931-6.223-16.13 0-.121 7.907-.176 25.337-.176 16.6 0 25.336.058 25.336.167Zm-30.683 3.23c-.4.318-.435.487-.324 1.564.068.663.229 3.184.357 5.6.128 2.416.32 4.564.426 4.773.247.485 1.362.533 1.673.072.138-.204.085-2.263-.155-6.098-.335-5.335-.396-5.81-.774-6.028-.543-.316-.673-.303-1.203.117Zm9.488-.117c-.378.219-.439.693-.773 6.028-.24 3.835-.293 5.894-.155 6.098.31.461 1.426.413 1.67-.072.105-.209.342-2.927.527-6.04l.338-5.661-.45-.296c-.543-.357-.633-.362-1.157-.057Zm-18.944.211c-.34.27-.328 1.151.03 2.128.245.665 1.532.723 1.84.083.158-.324-.208-1.976-.498-2.254-.334-.319-.94-.3-1.372.043Zm28.23-.04c-.376.358-1.523 6.684-1.278 7.046.295.438 1.037.57 1.434.254.227-.18.529-1.272.926-3.354.325-1.699.594-3.216.598-3.372.02-.658-1.168-1.064-1.68-.575Zm-27.225 5.032c-.14.111-.256.472-.256.802 0 1.04 1.03 6.108 1.292 6.359.328.313 1.141.307 1.474-.011.354-.34-.736-6.614-1.227-7.058-.38-.343-.918-.382-1.283-.093Zm25.46 4.824c-.445.403-.679 1.794-.376 2.242.33.49 1.283.39 1.64-.172.34-.538.352-1.898.018-2.163-.365-.29-.903-.25-1.282.093Z" fill="#1B68B2"/></svg>