<svg width="70" height="56" fill="none" xmlns="http://www.w3.org/2000/svg"><path fill-rule="evenodd" clip-rule="evenodd" d="M22.393 8.137c-10 6.849-12.246 8.13-14.804 8.446l-3.016.373-.147 15.851-.147 15.851H3.003c-2.662 0-4.033 4.095-2.088 6.237C1.825 55.898 4.993 56 35.1 56c31.45 0 33.229-.063 34.09-1.22 1.796-2.417.417-6.122-2.28-6.122-1.17 0-1.181-.124-1.327-15.85l-.147-15.852-2.661-.206c-2.12-.164-4.258-1.283-10.524-5.506-4.324-2.916-8.127-5.3-8.716-5.3-2.285 0-.254 2.209 5.589 6.078 5.939 3.933 6.302 4.283 4.65 4.477-1.398.163-3.585-.98-9.898-5.173-4.457-2.96-8.434-5.382-8.838-5.382-.404 0-4.383 2.423-8.843 5.385-6.27 4.165-8.507 5.337-9.87 5.172-1.57-.19-.638-.971 8.428-7.085l10.193-6.873 2.241 1.392c5.923 4.064 6.348 3.298 6.348 2.009.243-.445-7.696-6.025-8.628-5.943-.399.035-6.03 3.696-12.514 8.136Zm18.835 4.314 5.565 3.838-5.894.19c-3.242.103-8.547.103-11.789 0l-5.894-.19 5.483-3.796c3.016-2.087 5.817-3.814 6.223-3.838.408-.023 3.245 1.685 6.306 3.796Zm22.289 21.524v14.683H53.099v-3.67c0-2.782-.266-3.995-1.097-5.006-1.046-1.273-1.827-1.335-16.997-1.335s-15.952.062-16.998 1.335c-.83 1.011-1.097 2.224-1.097 5.006v3.67H6.492V19.292H63.517v14.683ZM11.22 23.658c-.188.596-.341 3.15-.341 5.677 0 5.362.492 5.975 4.794 5.975 4.149 0 4.607-.73 4.415-7.021l-.162-5.326-4.182-.194c-3.448-.16-4.243-.003-4.524.89Zm13.184-.584c-.201.244-.366 2.787-.366 5.65 0 6.057.39 6.586 4.86 6.586 3.748 0 4.462-1.012 4.462-6.334 0-6.314-.025-6.347-4.628-6.347-2.18 0-4.127.2-4.328.445Zm12.587.584c-.188.596-.341 2.989-.341 5.318 0 5.37.7 6.334 4.594 6.334 4.362 0 4.809-.68 4.615-7.021l-.162-5.326-4.183-.194c-3.448-.16-4.242-.003-4.523.89Zm13.184-.584c-.201.244-.366 2.787-.366 5.65 0 6.012.406 6.586 4.66 6.586 4.16 0 4.661-.643 4.661-5.975 0-6.713.005-6.706-4.627-6.706-2.18 0-4.127.2-4.328.445ZM18.007 28.97v3.671H13.072V25.3H18.007v3.67Zm13.16 0v3.671H26.231V25.3h4.934v3.67Zm12.61 0v3.671h-4.934V25.3H43.778v3.67Zm13.16 0v3.671H52.002V25.3H56.937v3.67Zm-6.14 16.185.166 3.504h-31.86v-3.225c0-1.775.169-3.431.374-3.682.206-.25 7.3-.375 15.765-.277l15.39.177.165 3.503Zm17.106 7.175c0 .88-4.02 1.001-32.898 1.001-28.878 0-32.9-.122-32.9-1 0-.88 4.022-1.002 32.9-1.002s32.898.122 32.898 1.001Z" fill="#1B68B2"/></svg>