<svg width="23" height="24" viewBox="0 0 23 24" fill="none" xmlns="http://www.w3.org/2000/svg">
<path d="M16.3996 24L12.234 19.8439L13.8768 18.2049L16.3703 20.6927L21.3572 15.7171L23 17.3854L16.3996 24ZM5.66297 17.561L4.02021 15.922L5.89765 14.0488L4.02021 12.1756L5.66297 10.5366L7.54042 12.4098L9.41786 10.5366L11.0606 12.1756L9.18318 14.0488L11.0606 15.922L9.41786 17.561L7.54042 15.6878L5.66297 17.561ZM2.84681 23.4146C2.20143 23.4146 1.64876 23.1856 1.18879 22.7274C0.729596 22.2685 0.5 21.7171 0.5 21.0732V4.68293C0.5 4.03902 0.729596 3.488 1.18879 3.02985C1.64876 2.57093 2.20143 2.34146 2.84681 2.34146H4.02021V0H6.36701V2.34146H15.7542V0H18.101V2.34146H19.2744C19.9198 2.34146 20.4725 2.57093 20.9325 3.02985C21.3917 3.488 21.6213 4.03902 21.6213 4.68293V12.1171L19.2744 14.4878V9.36585H2.84681V21.0732H10.1806L12.498 23.4146H2.84681Z" fill="white"/>
</svg>
