<svg width="48" height="43" viewBox="0 0 48 43" fill="none" xmlns="http://www.w3.org/2000/svg">
<path d="M44.4674 14.697L41.2753 5.11868C40.8123 3.72447 39.9217 2.51164 38.73 1.65253C37.5383 0.793412 36.1061 0.331705 34.637 0.333011H13.3617C11.8926 0.331705 10.4604 0.793412 9.26875 1.65253C8.07704 2.51164 7.1864 3.72447 6.72335 5.11868L3.53135 14.697C2.68345 15.0528 1.95933 15.6508 1.44965 16.4161C0.939978 17.1815 0.66739 18.0802 0.666016 18.9997V30.6663C0.666016 32.4233 1.65302 33.9377 3.09035 34.7333C3.06002 34.8873 2.99935 35.0273 2.99935 35.1883V39.9997C2.99935 40.6185 3.24518 41.212 3.68277 41.6496C4.12035 42.0872 4.71384 42.333 5.33268 42.333H7.66602C8.28485 42.333 8.87835 42.0872 9.31593 41.6496C9.75352 41.212 9.99935 40.6185 9.99935 39.9997V35.333H37.9994V39.9997C37.9994 40.6185 38.2452 41.212 38.6828 41.6496C39.1204 42.0872 39.7138 42.333 40.3327 42.333H42.666C43.2849 42.333 43.8784 42.0872 44.3159 41.6496C44.7535 41.212 44.9994 40.6185 44.9994 39.9997V35.1883C44.9994 35.0273 44.9387 34.885 44.9084 34.7333C45.6396 34.3347 46.2504 33.7469 46.6769 33.0315C47.1033 32.3161 47.3298 31.4992 47.3327 30.6663V18.9997C47.3327 17.0653 46.1474 15.404 44.4674 14.697ZM5.33268 30.6663V18.9997H42.666L42.6707 30.6663H5.33268ZM13.3617 4.99968H34.6347C35.6404 4.99968 36.5317 5.63901 36.849 6.59568L39.4297 14.333H8.56902L11.1474 6.59568C11.3022 6.13086 11.5994 5.72657 11.9968 5.44011C12.3942 5.15365 12.8718 4.99956 13.3617 4.99968Z" fill="#1B68B2"/>
</svg>
