<svg width="18" height="18" viewBox="0 0 18 18" fill="none" xmlns="http://www.w3.org/2000/svg">
<path d="M9.00001 16.875L4.25476 11.2787C4.18882 11.1947 4.12357 11.1101 4.05901 11.025C3.24843 9.95725 2.81054 8.65306 2.81251 7.3125C2.81251 5.67147 3.4644 4.09766 4.62478 2.93728C5.78517 1.7769 7.35898 1.125 9.00001 1.125C10.641 1.125 12.2148 1.7769 13.3752 2.93728C14.5356 4.09766 15.1875 5.67147 15.1875 7.3125C15.1895 8.65245 14.7518 9.95605 13.9416 11.0233L13.941 11.025C13.941 11.025 13.7723 11.2466 13.7469 11.2764L9.00001 16.875ZM4.95676 10.3472C4.95788 10.3472 5.08838 10.5204 5.11819 10.5576L9.00001 15.1358L12.8869 10.5514C12.9116 10.5204 13.0433 10.3461 13.0438 10.3455C13.706 9.47313 14.0638 8.4077 14.0625 7.3125C14.0625 5.96984 13.5291 4.68217 12.5797 3.73277C11.6303 2.78337 10.3427 2.25 9.00001 2.25C7.65735 2.25 6.36968 2.78337 5.42028 3.73277C4.47088 4.68217 3.93751 5.96984 3.93751 7.3125C3.93633 8.40838 4.29457 9.47442 4.95732 10.3472H4.95676Z" fill="black"/>
<path d="M11.8125 10.125H10.6875V5.625H7.3125V10.125H6.1875V5.625C6.1878 5.32672 6.30642 5.04075 6.51733 4.82983C6.72825 4.61892 7.01422 4.5003 7.3125 4.5H10.6875C10.9858 4.5003 11.2718 4.61892 11.4827 4.82983C11.6936 5.04075 11.8122 5.32672 11.8125 5.625V10.125Z" fill="black"/>
<path d="M8.4375 9H9.5625V10.125H8.4375V9ZM8.4375 6.75H9.5625V7.875H8.4375V6.75Z" fill="black"/>
</svg>
