<svg width="18" height="18" fill="none" xmlns="http://www.w3.org/2000/svg"><g opacity=".8" fill="#fff"><path d="m9 16.875-4.745-5.596a19.398 19.398 0 0 1-.196-.254 6.125 6.125 0 0 1-1.246-3.713 6.187 6.187 0 1 1 12.375 0 6.122 6.122 0 0 1-1.246 3.711l-.001.002s-.169.222-.194.251L9 16.875Zm-4.043-6.528s.131.173.161.21L9 15.137l3.887-4.585c.025-.03.156-.205.157-.206a5.006 5.006 0 0 0 1.018-3.033 5.063 5.063 0 0 0-10.124 0 5.01 5.01 0 0 0 1.02 3.035h-.001Z"/><path d="M11.813 10.125h-1.126v-4.5H7.313v4.5H6.188v-4.5A1.126 1.126 0 0 1 7.313 4.5h3.375a1.126 1.126 0 0 1 1.124 1.125v4.5Z"/><path d="M8.438 9h1.124v1.125H8.438V9Zm0-2.25h1.124v1.125H8.438V6.75Z"/></g></svg>