<svg width="18" height="18" fill="none" xmlns="http://www.w3.org/2000/svg"><path d="M10.688 11.813H7.312A1.687 1.687 0 0 0 5.625 13.5v1.125H6.75V13.5a.562.562 0 0 1 .563-.563h3.375a.562.562 0 0 1 .562.563v1.125h1.125V13.5a1.687 1.687 0 0 0-1.688-1.688ZM9 11.25a2.25 2.25 0 1 0 0-4.5 2.25 2.25 0 0 0 0 4.5Zm0-3.375a1.125 1.125 0 1 1 0 2.25 1.125 1.125 0 0 1 0-2.25Z" fill="#000"/><path d="M14.063 2.813h-1.688V2.25a1.125 1.125 0 0 0-1.125-1.125h-4.5A1.125 1.125 0 0 0 5.625 2.25v.563H3.937a1.125 1.125 0 0 0-1.124 1.124V15.75a1.125 1.125 0 0 0 1.124 1.125h10.126a1.125 1.125 0 0 0 1.124-1.125V3.937a1.125 1.125 0 0 0-1.124-1.124ZM6.75 2.25h4.5V4.5h-4.5V2.25Zm7.313 13.5H3.937V3.937h1.688v1.688h6.75V3.937h1.688V15.75Z" fill="#000"/></svg>