<svg width="24" height="24" viewBox="0 0 24 24" fill="none" xmlns="http://www.w3.org/2000/svg">
<path d="M23.4315 10.8767L22.6843 10.3323C22.0364 9.868 22.7366 9.12724 22.9949 8.66293C23.1078 8.47568 23.1751 8.26454 23.1915 8.0465C23.2078 7.82847 23.1727 7.60965 23.089 7.40766C23.0053 7.20567 22.8753 7.02617 22.7096 6.8836C22.5438 6.74104 22.3468 6.6394 22.1346 6.58688L21.2337 6.37341C21.072 6.33417 20.9309 6.23554 20.8386 6.09712C20.7462 5.9587 20.7093 5.79062 20.7352 5.62624L20.8814 4.71043C20.9142 4.49423 20.8957 4.27335 20.8274 4.06562C20.7591 3.85789 20.6429 3.66912 20.4882 3.51455C20.3335 3.35997 20.1447 3.24393 19.9369 3.17577C19.7291 3.10761 19.5082 3.08925 19.292 3.12217L18.3762 3.2684C17.5831 3.39008 17.5649 2.38461 17.4155 1.868C17.3624 1.65619 17.2603 1.45979 17.1174 1.29463C16.9745 1.12947 16.7949 1.00015 16.5929 0.917082C16.391 0.834015 16.1723 0.799518 15.9546 0.816369C15.7369 0.83322 15.5261 0.900947 15.3393 1.0141L14.5494 1.49976C14.4075 1.58581 14.2385 1.61557 14.0756 1.58317C13.9128 1.55077 13.7681 1.45856 13.6699 1.32471L13.1287 0.567936C12.9991 0.391852 12.8298 0.248708 12.6347 0.150054C12.4395 0.0514004 12.2239 0 12.0052 0C11.7866 0 11.571 0.0514004 11.3758 0.150054C11.1806 0.248708 11.0114 0.391852 10.8818 0.567936L10.3374 1.3151C9.87305 1.96193 9.13119 1.2628 8.66793 1.00449C8.48079 0.891372 8.26968 0.823821 8.05163 0.807293C7.83359 0.790765 7.61471 0.825722 7.41265 0.909344C7.2106 0.992965 7.03104 1.12291 6.88845 1.28869C6.74586 1.45448 6.64424 1.65145 6.59179 1.86373L6.3783 2.76567C6.33928 2.9275 6.2407 3.06868 6.10222 3.16106C5.96373 3.25345 5.79552 3.29025 5.6311 3.26413L4.71525 3.1179C4.49823 3.08402 4.27627 3.10185 4.06744 3.16995C3.85862 3.23805 3.66882 3.35449 3.5135 3.5098C3.35819 3.66511 3.24174 3.8549 3.17363 4.06372C3.10553 4.27254 3.0877 4.49449 3.12158 4.7115L3.26782 5.62624C3.39058 6.42037 2.38399 6.43745 1.86736 6.58688C1.65553 6.63999 1.45913 6.74208 1.29396 6.88494C1.12879 7.0278 0.999467 7.20744 0.916396 7.40939C0.833325 7.61135 0.798827 7.82999 0.815679 8.04771C0.83253 8.26544 0.90026 8.47616 1.01342 8.66293L1.49803 9.45279C1.58458 9.5946 1.61463 9.76378 1.5822 9.92672C1.54976 10.0897 1.45723 10.2344 1.32297 10.3323L0.575774 10.8767C0.399682 11.0063 0.256531 11.1755 0.157873 11.3707C0.0592152 11.5658 0.0078125 11.7814 0.0078125 12.0001C0.0078125 12.2188 0.0592152 12.4344 0.157873 12.6295C0.256531 12.8246 0.399682 12.9939 0.575774 13.1235L1.32297 13.6668C1.9709 14.1311 1.27174 14.8729 1.01342 15.3372C0.900291 15.5244 0.832738 15.7355 0.816209 15.9535C0.79968 16.1716 0.834638 16.3904 0.918264 16.5925C1.00189 16.7945 1.13184 16.9741 1.29763 17.1166C1.46342 17.2592 1.66041 17.3608 1.8727 17.4133L2.77467 17.6268C2.93625 17.6662 3.07714 17.7649 3.16945 17.9033C3.26175 18.0416 3.29877 18.2096 3.27316 18.3739L3.12692 19.2898C3.0944 19.5053 3.11285 19.7256 3.18082 19.9327C3.24878 20.1399 3.36436 20.3282 3.51827 20.4827C3.67219 20.6371 3.86016 20.7533 4.06711 20.822C4.27405 20.8906 4.49421 20.9098 4.70991 20.878L5.62577 20.7318C6.421 20.6122 6.43594 21.6134 6.58645 22.1311C6.63877 22.3435 6.7403 22.5406 6.88283 22.7065C7.02536 22.8724 7.20491 23.0025 7.40698 23.0862C7.60905 23.1699 7.82798 23.205 8.04609 23.1885C8.2642 23.1721 8.47538 23.1045 8.66259 22.9914L9.45249 22.5058C9.59437 22.4195 9.76349 22.3896 9.92636 22.422C10.0892 22.4544 10.234 22.5468 10.332 22.6808L10.8764 23.428C11.0061 23.6041 11.1753 23.7472 11.3705 23.8459C11.5656 23.9445 11.7812 23.9959 11.9999 23.9959C12.2186 23.9959 12.4342 23.9445 12.6293 23.8459C12.8245 23.7472 12.9937 23.6041 13.1234 23.428L13.6667 22.6808C14.1321 22.0329 14.8729 22.7331 15.3361 22.9914C15.5233 23.1045 15.7345 23.1721 15.9526 23.1885C16.1708 23.205 16.3897 23.1699 16.5917 23.0862C16.7938 23.0025 16.9734 22.8724 17.1159 22.7065C17.2584 22.5406 17.36 22.3435 17.4123 22.1311L17.6258 21.2302C17.6652 21.0687 17.7639 20.9278 17.9023 20.8355C18.0406 20.7432 18.2086 20.7062 18.373 20.7318L19.2888 20.878C19.505 20.9105 19.7258 20.8918 19.9335 20.8234C20.1412 20.755 20.3299 20.6389 20.4845 20.4843C20.6391 20.3297 20.7552 20.141 20.8236 19.9333C20.892 19.7257 20.9107 19.5049 20.8782 19.2887L20.732 18.3729C20.6092 17.5798 21.6147 17.5617 22.1314 17.4122C22.3436 17.3597 22.5406 17.2581 22.7064 17.1155C22.8721 16.973 23.0021 16.7934 23.0858 16.5915C23.1695 16.3895 23.2046 16.1706 23.1883 15.9526C23.1719 15.7346 23.1046 15.5234 22.9917 15.3362L22.506 14.5463C22.4197 14.4043 22.3897 14.235 22.4221 14.072C22.4546 13.9089 22.547 13.7639 22.6811 13.6657L23.4283 13.1224C23.6044 12.993 23.7476 12.8241 23.8464 12.6292C23.9452 12.4343 23.9968 12.2189 23.9971 12.0004C23.9974 11.7819 23.9464 11.5663 23.8482 11.3711C23.7499 11.176 23.6072 11.0066 23.4315 10.8767ZM23.0045 12.5343L22.2573 13.0776C21.9751 13.2838 21.7806 13.5884 21.7124 13.9312C21.6442 14.274 21.7072 14.6299 21.8891 14.9284L22.3747 15.7183C22.4285 15.8072 22.4605 15.9076 22.4683 16.0112C22.4761 16.1148 22.4595 16.2188 22.4197 16.3148C22.3799 16.4108 22.3181 16.4961 22.2393 16.5638C22.1604 16.6315 22.0668 16.6797 21.9659 16.7046L21.0639 16.918C20.7246 17.0006 20.4285 17.2075 20.2344 17.4979C20.0403 17.7882 19.9622 18.1409 20.0157 18.486C20.0317 18.8489 20.3562 19.6815 19.9773 19.9718C19.6838 20.3571 18.8704 20.0284 18.4914 20.0113C18.1462 19.9562 17.793 20.0335 17.5023 20.2276C17.2115 20.4218 17.0048 20.7185 16.9234 21.0584L16.7099 21.9603C16.6851 22.0614 16.6369 22.1552 16.5691 22.2341C16.5013 22.313 16.4159 22.3749 16.3197 22.4147C16.2236 22.4545 16.1195 22.4711 16.0157 22.4632C15.912 22.4553 15.8115 22.4231 15.7225 22.3691L14.9326 21.8835C14.6342 21.702 14.2786 21.6391 13.936 21.7073C13.5934 21.7755 13.2889 21.9698 13.0828 22.2517L12.5395 22.9989C12.4758 23.0795 12.3948 23.1447 12.3023 23.1895C12.2099 23.2343 12.1085 23.2575 12.0058 23.2575C11.903 23.2575 11.8017 23.2343 11.7092 23.1895C11.6168 23.1447 11.5357 23.0795 11.4721 22.9989L10.9277 22.2517C10.7214 21.9684 10.4161 21.7731 10.0724 21.7045C9.72869 21.6358 9.37176 21.699 9.07248 21.8813L8.28259 22.367C8.19396 22.422 8.09349 22.455 7.98952 22.4634C7.88556 22.4717 7.7811 22.4552 7.68483 22.415C7.2173 22.2902 7.20876 21.4128 7.08067 21.0563C6.9979 20.7169 6.79071 20.4209 6.50013 20.227C6.20954 20.0331 5.85673 19.9554 5.51155 20.0092L4.59677 20.1554C4.49395 20.1709 4.38891 20.1621 4.29012 20.1296C4.19134 20.0972 4.10156 20.0419 4.02803 19.9684C3.9545 19.8949 3.89927 19.8051 3.86679 19.7063C3.83431 19.6075 3.82548 19.5025 3.84103 19.3997L3.98727 18.4839C4.04075 18.1387 3.96272 17.7861 3.7686 17.4957C3.57449 17.2054 3.27845 16.9984 2.93905 16.9159C2.59855 16.7921 1.70511 16.7729 1.58129 16.3118C1.33792 15.8934 1.95275 15.2668 2.115 14.9242C2.29677 14.6258 2.35979 14.2701 2.29158 13.9275C2.22337 13.5849 2.02891 13.2804 1.74674 13.0744L0.999542 12.5311C0.916103 12.4694 0.848303 12.3889 0.801584 12.2962C0.754864 12.2036 0.730528 12.1012 0.730528 11.9974C0.730528 11.8936 0.754864 11.7913 0.801584 11.6986C0.848303 11.6059 0.916103 11.5255 0.999542 11.4637L1.74674 10.9194C2.02772 10.7132 2.22119 10.4091 2.28897 10.0673C2.35675 9.72544 2.29392 9.3706 2.11287 9.07281C1.95916 8.74405 1.34112 8.09936 1.57915 7.68521C1.70298 7.2177 2.58147 7.20916 2.93692 7.08001C3.27708 6.99882 3.57404 6.7922 3.76839 6.50148C3.96274 6.21076 4.04015 5.85738 3.98513 5.51203C3.96912 5.14912 3.64462 4.31764 4.02463 4.02624C4.31817 3.64305 5.13155 3.96967 5.50942 3.98782C5.85471 4.04133 6.20752 3.96334 6.49808 3.76925C6.78863 3.57516 6.99577 3.27911 7.07853 2.93965L7.29202 2.03878C7.31703 1.93787 7.36539 1.84424 7.43321 1.76543C7.50102 1.68662 7.5864 1.62484 7.68247 1.58507C7.77853 1.5453 7.8826 1.52864 7.98628 1.53644C8.08996 1.54424 8.19035 1.57628 8.27939 1.62998L9.06928 2.11457C9.36757 2.29619 9.72317 2.35924 10.0657 2.29125C10.4083 2.22325 10.7128 2.02917 10.9191 1.74739C11.1646 1.47841 11.5233 0.660798 11.9972 0.723774C12.4776 0.658663 12.8202 1.47094 13.0753 1.74739C13.2815 2.02937 13.586 2.22361 13.9287 2.29162C14.2713 2.35963 14.627 2.29644 14.9252 2.11457C15.255 1.96086 15.8987 1.34285 16.3128 1.58088C16.7814 1.70469 16.7889 2.58208 16.9181 2.93858C17.0006 3.27796 17.2075 3.57399 17.4979 3.7681C17.7883 3.9622 18.1409 4.04023 18.4861 3.98675C18.849 3.97074 19.6816 3.64519 19.972 4.02517C20.3573 4.31977 20.0285 5.13311 20.0104 5.51097C19.9554 5.85631 20.0328 6.20969 20.2271 6.50041C20.4215 6.79113 20.7184 6.99776 21.0586 7.07894L21.9606 7.29242C22.0615 7.31728 22.1551 7.36551 22.2339 7.43322C22.3127 7.50093 22.3745 7.58621 22.4143 7.6822C22.4541 7.77819 22.4708 7.88218 22.463 7.9858C22.4552 8.08941 22.4231 8.18973 22.3694 8.27868L21.8816 9.07281C21.7001 9.37121 21.6372 9.72687 21.7054 10.0694C21.7736 10.412 21.9679 10.7164 22.2499 10.9226L22.9971 11.4669C23.0811 11.528 23.1497 11.6079 23.1972 11.7002C23.2447 11.7926 23.2698 11.8949 23.2705 11.9987C23.2713 12.1026 23.2476 12.2052 23.2014 12.2982C23.1552 12.3913 23.0877 12.4721 23.0045 12.5343ZM20.1225 12.0006C19.6859 22.7737 4.3107 22.7758 3.87305 12.0006C3.88499 10.5524 4.28197 9.13338 5.02328 7.88917C5.76459 6.64495 6.82354 5.62032 8.09152 4.92036C9.35949 4.22041 10.7908 3.87032 12.2388 3.90602C13.6867 3.94172 15.099 4.36192 16.331 5.12351C16.4095 5.1763 16.4644 5.25759 16.484 5.35016C16.5036 5.44274 16.4864 5.5393 16.436 5.6194C16.3856 5.69949 16.306 5.75681 16.2141 5.77921C16.1221 5.80161 16.0251 5.78732 15.9435 5.73938C14.8219 5.04662 13.5363 4.66453 12.2184 4.63226C10.9005 4.6 9.59771 4.91873 8.44357 5.55579C7.28943 6.19284 6.32545 7.12531 5.65042 8.25762C4.97539 9.38994 4.61359 10.6814 4.6021 11.9996C4.97357 21.7981 19.0252 21.7981 19.3966 11.9996C19.3966 11.903 19.435 11.8104 19.5032 11.7422C19.5715 11.6739 19.6641 11.6356 19.7606 11.6356C19.8572 11.6356 19.9497 11.6739 20.018 11.7422C20.0863 11.8104 20.1246 11.903 20.1246 11.9996L20.1225 12.0006ZM7.925 9.35886C7.87367 9.30938 7.809 9.27596 7.73894 9.26271C7.66888 9.24946 7.59648 9.25695 7.53062 9.28427C7.46476 9.31159 7.40831 9.35754 7.3682 9.41649C7.32809 9.47544 7.30606 9.54481 7.30483 9.6161V13.2452C7.3049 13.3417 7.34329 13.4342 7.41157 13.5024L11.1849 17.2745C11.2532 17.3427 11.3457 17.381 11.4422 17.381C11.5386 17.381 11.6312 17.3427 11.6994 17.2745L18.564 10.4102C18.6321 10.3419 18.6705 10.2495 18.6708 10.153V6.52391C18.671 6.45195 18.6499 6.38154 18.61 6.32163C18.5701 6.26172 18.5134 6.21501 18.4469 6.18744C18.3804 6.15987 18.3073 6.15268 18.2367 6.16679C18.1661 6.1809 18.1014 6.21566 18.0506 6.26667L11.4432 12.8737L7.925 9.35886ZM17.9417 7.40129V10.0025L11.4411 16.5028L8.03174 13.0947V10.4935L11.1839 13.6455C11.2521 13.7136 11.3446 13.7519 11.4411 13.7519C11.5376 13.7519 11.6301 13.7136 11.6983 13.6455L17.9417 7.40129Z" fill="#1B68B2"/>
</svg>
