<svg width="24" height="24" viewBox="0 0 24 24" fill="none" xmlns="http://www.w3.org/2000/svg">
<g clip-path="url(#clip0_240_8822)">
<path d="M15.4919 0.694382C11.0339 -0.604618 6.01792 0.771632 2.92867 4.25688C-0.535584 8.16363 -0.978834 14.0549 1.87867 18.4296C4.51267 22.4616 9.42967 24.4386 14.1367 23.5934C19.8157 22.5734 23.8739 17.6954 23.9999 11.9631C23.8859 6.76263 20.5327 2.16288 15.4919 0.694382ZM11.5522 23.4711C5.51017 23.1899 0.717666 17.9481 0.717666 11.9624C0.717666 5.68038 6.03367 0.231632 12.4192 0.528632C18.5489 0.814382 23.1224 6.05013 23.2529 12.0374C23.1164 18.3164 18.0329 23.7726 11.5522 23.4711Z" fill="#1B68B2"/>
<path d="M15.5833 15.0704C14.8603 14.3474 14.1373 13.6251 13.4143 12.9021C13.1345 12.6231 12.506 12.2076 12.3568 11.8454C12.2225 11.5206 12.3583 10.8539 12.3583 10.4961C12.3583 9.4904 12.3583 8.48465 12.3583 7.4789C12.3583 6.01565 12.3583 4.55315 12.3583 3.0899C12.3583 2.8949 11.6128 2.9444 11.6128 3.17315C11.6128 4.6364 11.6128 6.0989 11.6128 7.56215C11.6128 8.5679 11.6128 9.57365 11.6128 10.5794C11.6128 10.9454 11.4785 11.6256 11.6218 11.9699C11.7485 12.2751 12.2855 12.6434 12.5098 12.8677C13.211 13.5689 13.9123 14.2701 14.6135 14.9706C15.6943 16.0514 16.775 17.1314 17.8558 18.2122C18.0148 18.3712 18.6988 18.1859 18.566 18.0532C17.5722 17.0587 16.5778 16.0649 15.5833 15.0704Z" fill="#1B68B2"/>
</g>
<defs>
<clipPath id="clip0_240_8822">
<rect width="24" height="24" fill="white"/>
</clipPath>
</defs>
</svg>
