<svg width="18" height="18" fill="none" xmlns="http://www.w3.org/2000/svg"><g clip-path="url(#a)" opacity=".8"><path d="M18 8.991C18 4.028 13.968 0 9 0S0 4.027 0 8.991c0 2.734 1.242 5.197 3.186 6.851.018.018.036.018.036.036.162.126.324.252.504.378.09.054.162.125.252.197a8.978 8.978 0 0 0 10.08 0c.09-.054.162-.125.252-.18.162-.125.342-.25.504-.377.018-.018.036-.018.036-.036C16.758 14.187 18 11.725 18 8.991Zm-9 7.876c-1.692 0-3.24-.54-4.518-1.439.018-.144.054-.287.09-.43.107-.39.265-.766.468-1.115.198-.342.432-.648.72-.918.27-.27.594-.521.918-.72a4.543 4.543 0 0 1 1.098-.45c.4-.107.81-.161 1.224-.16a4.708 4.708 0 0 1 3.294 1.312c.414.414.738.9.972 1.456.126.324.216.666.27 1.025A7.908 7.908 0 0 1 9 16.868ZM6.246 8.542a2.801 2.801 0 0 1-.234-1.152c0-.395.072-.79.234-1.15a3.19 3.19 0 0 1 .648-.954c.27-.27.594-.484.954-.646.36-.162.756-.234 1.152-.234.414 0 .792.072 1.152.234.36.162.684.378.954.646.27.27.486.594.648.953.162.36.234.756.234 1.151 0 .414-.072.792-.234 1.151a3.194 3.194 0 0 1-.648.954c-.276.272-.6.49-.954.647a3.054 3.054 0 0 1-2.322 0 3.195 3.195 0 0 1-.954-.647 2.842 2.842 0 0 1-.63-.954v.001Zm8.352 5.97c0-.037-.018-.055-.018-.09a5.873 5.873 0 0 0-.774-1.582 5.495 5.495 0 0 0-1.224-1.277 5.862 5.862 0 0 0-1.17-.684c.189-.125.364-.27.522-.431.268-.265.504-.561.702-.882.399-.655.605-1.41.594-2.176a4.174 4.174 0 0 0-.324-1.654 4.273 4.273 0 0 0-.918-1.348 4.326 4.326 0 0 0-1.35-.9 4.185 4.185 0 0 0-1.656-.323 4.185 4.185 0 0 0-1.656.324 4.085 4.085 0 0 0-1.35.917 4.32 4.32 0 0 0-.9 1.348 4.174 4.174 0 0 0-.324 1.654c0 .396.054.774.162 1.133.108.378.252.72.45 1.043.18.324.432.612.702.882.162.162.342.305.54.43a5.76 5.76 0 0 0-1.17.703c-.468.36-.882.79-1.224 1.259-.34.483-.6 1.017-.774 1.581-.018.036-.018.072-.018.09-1.422-1.438-2.304-3.38-2.304-5.538 0-4.333 3.546-7.876 7.884-7.876 4.338 0 7.884 3.542 7.884 7.876a7.83 7.83 0 0 1-2.286 5.52Z" fill="#fff"/></g><defs><clipPath id="a"><rect width="18" height="18" rx="5" fill="#fff"/></clipPath></defs></svg>