<svg width="74" height="54" viewBox="0 0 74 54" fill="none" xmlns="http://www.w3.org/2000/svg">
<path fill-rule="evenodd" clip-rule="evenodd" d="M73.9528 25.56C73.2094 21.8652 71.3573 19.4085 68.079 17.7689C67.4649 17.4619 66.8949 17.0846 66.8121 16.9308C66.7216 16.7626 66.6615 15.4492 66.6615 13.6404C66.6615 10.2838 66.5538 9.66758 65.8021 8.72366C65.5396 8.39405 65.0037 7.98451 64.5385 7.75814C63.8127 7.40506 63.5346 7.35854 61.8014 7.30008C59.2552 7.21411 59.3319 7.29274 59.2458 4.68C59.1968 3.19147 59.1211 2.61792 58.9229 2.232C58.4597 1.32984 58.023 0.864288 57.2317 0.428256L56.4542 0L36.9806 0L17.5069 0L16.7294 0.428256C15.938 0.864288 15.5014 1.32984 15.0382 2.232C14.84 2.61792 14.7643 3.19147 14.7153 4.68C14.6292 7.29432 14.708 7.21411 12.1464 7.30051C10.3496 7.36114 10.1413 7.39786 9.36712 7.79026C8.4583 8.25091 7.72264 9.14702 7.44914 10.1265C7.36777 10.4177 7.30089 12.0048 7.30045 13.6535C7.29987 15.4516 7.23935 16.7629 7.149 16.9308C7.06618 17.0846 6.49617 17.4619 5.88213 17.7689C2.99903 19.2108 1.06281 21.4986 0.263168 24.408C-0.0866318 25.6805 -0.0879364 28.3111 0.260559 29.592C1.05268 32.5037 2.97803 34.7787 5.87692 36.2285C6.48806 36.5342 7.04187 36.867 7.1076 36.9681C7.17333 37.0692 7.25992 38.6748 7.29987 40.536C7.37183 43.8792 7.37748 43.9289 7.7684 44.6671C8.55169 46.146 9.54216 46.6017 12.1784 46.6965C14.703 46.787 14.6293 46.7109 14.7153 49.32C14.7643 50.8085 14.84 51.3821 15.0382 51.768C15.5014 52.6702 15.938 53.1357 16.7294 53.5717L17.5069 54H36.9806C55.7184 54 56.4733 53.9898 56.9609 53.731C57.9149 53.2246 58.4132 52.7577 58.7966 52.0111C59.1417 51.3393 59.1868 51.068 59.245 49.32C59.3321 46.7101 59.2582 46.7863 61.7827 46.6991C63.2814 46.6472 63.8339 46.5706 64.3449 46.3432C65.2601 45.9363 65.8137 45.43 66.2302 44.619C66.5745 43.9485 66.592 43.7819 66.6615 40.536C66.7013 38.6748 66.7878 37.0692 66.8535 36.9681C66.9192 36.867 67.473 36.5342 68.0842 36.2285C70.9654 34.7875 72.9106 32.5058 73.6806 29.664C73.9166 28.7927 74.0868 26.2264 73.9528 25.56ZM71.1126 29.5511C70.3947 31.5968 69.0227 33.0532 66.8098 34.1192C65.495 34.7524 64.9936 35.2008 64.5452 36.144C64.2183 36.832 64.2029 37.0035 64.2016 40.0032C64.2 43.3935 64.1011 43.9178 63.4374 44.0542C63.2596 44.0906 62.3324 44.1475 61.3769 44.1805C59.3929 44.249 58.7822 44.4397 57.921 45.2591C57.0184 46.1177 56.8231 46.6968 56.8184 48.528C56.8163 49.3992 56.7466 50.3549 56.6638 50.6517C56.3728 51.6938 57.7865 51.624 36.9806 51.624C16.1746 51.624 17.5883 51.6938 17.2973 50.6517C17.2145 50.3549 17.1448 49.3992 17.1427 48.528C17.138 46.6968 16.9427 46.1177 16.0401 45.2591C15.1789 44.4397 14.5682 44.249 12.5842 44.1805C11.6287 44.1475 10.7015 44.0906 10.5237 44.0542C9.85996 43.9178 9.76108 43.3935 9.75948 40.0032C9.75818 37.0035 9.74284 36.832 9.41591 36.144C8.96389 35.193 8.47307 34.759 7.08082 34.0792C5.5322 33.3229 4.54852 32.5112 3.7719 31.3487C2.77939 29.8629 2.46288 28.8112 2.46288 27C2.46288 25.1832 2.77939 24.1373 3.78448 22.6326C4.56922 21.4579 5.4834 20.7078 7.14915 19.8721C8.53431 19.1772 9.02905 18.7301 9.45964 17.784C9.72706 17.1965 9.75485 16.843 9.75774 13.9968C9.76122 10.6069 9.8604 10.082 10.5237 9.94579C10.7015 9.90936 11.6287 9.85248 12.5842 9.8195C14.5682 9.75096 15.1789 9.5603 16.0401 8.74094C16.9427 7.88227 17.138 7.30325 17.1427 5.472C17.1448 4.6008 17.2145 3.64507 17.2973 3.34829C17.5883 2.30616 16.1746 2.376 36.9806 2.376C57.7865 2.376 56.3728 2.30616 56.6638 3.34829C56.7466 3.64507 56.8163 4.6008 56.8184 5.472C56.8231 7.30325 57.0184 7.88227 57.921 8.74094C58.7822 9.5603 59.3929 9.75096 61.3769 9.8195C62.3324 9.85248 63.2596 9.90936 63.4374 9.94579C64.1007 10.082 64.1999 10.6069 64.2034 13.9968C64.2062 16.843 64.234 17.1965 64.5015 17.784C64.9277 18.7204 65.4264 19.1773 66.7339 19.8292C68.8363 20.8774 69.8785 21.8603 70.7799 23.6454C71.6647 25.3974 71.7901 27.6214 71.1126 29.5511ZM68.9747 25.8114C68.5479 24.1295 67.4995 22.9324 65.7087 22.0821C64.0507 21.2949 63.051 20.3659 62.3555 18.9664L61.8112 17.8713L61.7291 15.4876C61.6839 14.1767 61.5991 12.9997 61.5405 12.8723C61.3795 12.522 60.9088 12.3418 59.7118 12.1722C56.8181 11.7621 54.7371 9.66614 54.3462 6.768C54.2248 5.86685 54.1134 5.53766 53.8351 5.256L53.4795 4.896H36.9806H20.4816L20.126 5.256C19.8477 5.53766 19.7363 5.86685 19.6149 6.768C19.2177 9.71194 17.1386 11.7729 14.1453 12.1899C12.3307 12.4426 12.312 12.4743 12.2223 15.463L12.1499 17.8713L11.6056 18.9664C10.9099 20.3661 9.91035 21.2949 8.25169 22.0824C6.77763 22.7824 5.97972 23.5434 5.36062 24.84C4.97028 25.6578 4.91381 25.9305 4.91381 27C4.91381 28.0728 4.96999 28.3422 5.36844 29.1817C5.97813 30.4659 6.76315 31.2107 8.25241 31.9179C9.91035 32.7051 10.9101 33.6341 11.6056 35.0336L12.1499 36.1287L12.2223 38.537C12.312 41.5257 12.3307 41.5574 14.1453 41.8101C17.1386 42.2271 19.2177 44.2881 19.6149 47.232C19.7363 48.133 19.8477 48.4625 20.126 48.744L20.4816 49.104L36.7771 49.1419C51.5038 49.176 53.1199 49.1574 53.5635 48.9479C54.1246 48.6832 54.1502 48.6252 54.3532 47.16C54.7515 44.2846 56.8574 42.2222 59.8158 41.8101C61.6304 41.5574 61.649 41.5257 61.7388 38.537L61.8112 36.1287L62.3555 35.0336C63.051 33.6341 64.0507 32.7051 65.7087 31.9179C67.1848 31.217 67.9851 30.4642 68.5653 29.2313C69.0387 28.225 69.2147 26.7564 68.9747 25.8114ZM66.4946 27.8785C66.1758 28.8135 65.8063 29.1531 64.3665 29.8348C63.2175 30.3788 62.7737 30.6909 61.867 31.5922C60.0461 33.4018 59.2775 35.2797 59.2775 37.9185V39.3636L58.4748 39.5293C55.5394 40.1354 52.8623 42.7523 52.1034 45.7574L51.8582 46.728H36.9806H22.1029L21.8577 45.7574C21.0988 42.7523 18.4217 40.1354 15.4863 39.5293L14.6836 39.3636V37.892C14.6836 35.2401 13.9803 33.5107 12.1499 31.6623C11.1671 30.6698 10.7799 30.3926 9.59457 29.8329C8.0668 29.1116 7.71265 28.7592 7.41932 27.6689C7.27612 27.1359 7.27612 26.8641 7.41932 26.3311C7.71265 25.2408 8.0668 24.8884 9.59457 24.1671C10.7807 23.6071 11.1665 23.3306 12.1499 22.3368C13.9859 20.4816 14.6836 18.7662 14.6836 16.108V14.6364L15.4863 14.4707C18.452 13.8584 21.306 11.0199 21.9216 8.07034L22.0882 7.272H36.9806H51.8729L52.0395 8.07034C52.6551 11.0199 55.5091 13.8584 58.4748 14.4707L59.2775 14.6364V16.0815C59.2775 18.744 59.9853 20.4918 61.8112 22.3368C62.7946 23.3306 63.1804 23.6071 64.3665 24.1671C65.2475 24.583 65.8682 24.9754 66.047 25.2294C66.6363 26.0662 66.7941 27.0001 66.4946 27.8785Z" fill="#1B68B2"/>
</svg>
