<svg width="65" height="54" viewBox="0 0 65 54" fill="none" xmlns="http://www.w3.org/2000/svg">
<path fill-rule="evenodd" clip-rule="evenodd" d="M25.6848 0.234686C24.9011 0.549826 24.0443 1.19097 23.7645 1.67175C23.6539 1.86169 23.3621 2.11181 23.1161 2.22757C22.0552 2.72651 21.5986 3.22459 20.6115 4.95979C20.5952 4.98837 20.3075 4.90605 19.972 4.77699C19.2771 4.50973 16.6115 4.31464 15.7171 4.46557C15.3392 4.52931 15.0145 4.69581 14.8025 4.93435C14.4761 5.30194 14.4739 5.31937 14.4739 7.62068C14.4739 9.56269 14.5148 10.0709 14.7272 10.7657C14.8665 11.2213 15.0449 11.6816 15.1236 11.7884C15.2436 11.9512 14.771 11.9826 12.2061 11.9826H9.14547L8.75976 12.3757C8.54773 12.5917 7.27555 14.3711 5.93278 16.3297C4.59013 18.2883 3.40581 19.937 3.30106 19.9938C3.19632 20.0503 2.79651 20.2487 2.41257 20.4345C1.06624 21.086 0.152103 22.5396 0.0307253 24.2222C-0.0896366 25.8915 0.694366 27.6327 1.90471 28.3842L2.5356 28.7758L2.5375 36.1005L2.53928 43.4252L2.25361 43.4283C1.84618 43.4327 1.00073 43.8997 0.672655 44.3016C0.070465 45.0387 0 45.5012 0 48.7132C0 51.1072 0.0402476 51.8322 0.19654 52.2531C0.458594 52.9594 0.845454 53.4119 1.46009 53.7312C1.94928 53.9853 3.08688 53.9951 32.4751 53.9981C65.6789 54.0016 63.4438 54.0546 64.227 53.2441C64.9181 52.5291 65 52.0487 65 48.7132C65 45.3777 64.9181 44.8974 64.227 44.1824C63.8737 43.8166 63.0967 43.4252 62.7243 43.4252C62.4683 43.4252 62.4663 43.3684 62.4663 36.1002V28.7754L63.0441 28.4302C63.7147 28.0298 64.1228 27.5241 64.5982 26.5044C64.8892 25.8804 64.9388 25.5981 64.9403 24.5596C64.942 23.4327 64.9092 23.2776 64.4877 22.4158C63.9811 21.3799 63.155 20.5694 62.2952 20.2644C62.0052 20.1617 61.6923 20.013 61.5999 19.9342C61.5073 19.8553 60.3187 18.1644 58.9585 16.1768C57.5983 14.1892 56.3377 12.4322 56.1576 12.2727C55.8489 11.9995 55.6527 11.9826 52.7844 11.9826C50.2322 11.9826 49.762 11.9512 49.882 11.7884C49.9607 11.6816 50.1391 11.2213 50.2784 10.7657C50.4908 10.0709 50.5317 9.56269 50.5317 7.62068C50.5317 5.31937 50.5295 5.30194 50.2031 4.93435C49.9911 4.69581 49.6664 4.52931 49.2885 4.46557C48.3941 4.31464 45.7285 4.50973 45.0336 4.77699C44.6981 4.90605 44.4104 4.98837 44.3941 4.95979C43.5939 3.55302 43.3349 3.20629 42.7586 2.76938C42.3919 2.4914 42.0205 2.26402 41.9333 2.26402C41.846 2.26402 41.4808 1.93516 41.1219 1.53312C40.1535 0.448923 39.3018 0.0487455 37.9622 0.0487455C36.6259 0.0487455 35.7767 0.44635 34.7899 1.53398C34.4257 1.93544 34.054 2.26402 33.9643 2.26402C33.8744 2.26402 33.5089 2.49012 33.1518 2.76667L32.5028 3.26918L31.8538 2.76667C31.4967 2.49012 31.1221 2.26402 31.021 2.26402C30.9201 2.26402 30.6023 1.97303 30.3147 1.61744C29.1921 0.228968 27.188 -0.369583 25.6848 0.234686ZM27.8705 3.06066C28.1022 3.18442 28.4413 3.5403 28.6244 3.85158C28.8093 4.16615 29.1523 4.51044 29.3967 4.62707C29.6386 4.74226 30.0344 4.93092 30.2761 5.04611C30.566 5.18417 30.8038 5.45 30.9744 5.82646C31.3567 6.66983 31.3092 7.25266 30.7888 8.10433C30.4229 8.70316 30.3444 8.96071 30.3444 9.56369C30.3444 11.3668 29.1436 12.3785 27.7264 11.7692C27.1689 11.5297 27.1085 11.5297 26.4029 11.7701C25.5725 12.0532 25.0529 11.9939 24.5033 11.5533C24.0749 11.2098 23.6837 10.1521 23.7786 9.59356C23.8546 9.14607 23.6308 8.43447 23.3241 8.14806C23.0226 7.86665 22.817 7.03042 22.9107 6.46774C23.0323 5.73799 23.6627 5.00624 24.3333 4.81615C24.7579 4.69581 25.0095 4.49901 25.3659 4.00879C26.1994 2.86228 26.9601 2.5743 27.8705 3.06066ZM38.7143 3.04436C38.9116 3.15927 39.3082 3.56945 39.5958 3.9562C39.9957 4.49386 40.2496 4.69638 40.6761 4.81715C41.3428 5.00609 41.9735 5.73999 42.0949 6.46774C42.1886 7.03042 41.9829 7.86665 41.6815 8.14806C41.3715 8.43747 41.1224 9.22611 41.2128 9.63186C41.327 10.1441 40.9338 11.2073 40.5023 11.5533C39.9527 11.9939 39.4331 12.0532 38.6027 11.7701C37.8971 11.5297 37.8367 11.5297 37.2792 11.7692C36.5846 12.0679 35.9711 11.9932 35.4073 11.5414C34.9019 11.1361 34.6612 10.4768 34.6612 9.49709C34.6612 8.88839 34.5957 8.62885 34.3627 8.31342C33.6941 7.40859 33.6078 6.76087 34.0312 5.82646C34.283 5.27078 34.4751 5.12429 35.533 4.68123C35.7738 4.58047 36.1229 4.24747 36.3324 3.91904C36.9733 2.91445 37.904 2.57272 38.7143 3.04436ZM26.4225 6.46531C25.6734 6.93266 25.574 7.92753 26.2054 8.63828C26.8391 9.35159 27.7437 9.2344 28.1321 8.38888C28.7245 7.09916 27.541 5.76743 26.4225 6.46531ZM37.3414 6.46531C36.1945 7.18077 36.7084 9.12421 38.0444 9.12421C38.4765 9.12421 39.2319 8.27383 39.2319 7.78747C39.2319 6.63796 38.2101 5.92321 37.3414 6.46531ZM19.3244 7.53593C19.8452 7.75889 20.5881 8.57225 20.8392 9.19438C20.9981 9.58798 21.0713 10.1142 21.0732 10.875L21.076 11.9826H20.2337C19.1745 11.9826 18.5516 11.7747 17.9561 11.2221C17.263 10.5791 17.0193 9.85353 17.016 8.42418L17.0132 7.22393L18.0054 7.30997C18.5511 7.35742 19.1447 7.45904 19.3244 7.53593ZM47.9896 8.44533C47.9863 9.8521 47.739 10.5823 47.0494 11.2221C46.454 11.7747 45.8311 11.9826 44.7718 11.9826H43.9296L43.9324 10.875C43.9343 10.1096 44.0074 9.58827 44.169 9.18766C44.4704 8.44062 45.3622 7.58109 45.9499 7.47104C46.2004 7.42417 46.4625 7.364 46.5323 7.33727C46.6021 7.31069 46.9593 7.28368 47.3258 7.27753L47.9924 7.26624L47.9896 8.44533ZM56.5535 17.3471C57.5011 18.7256 58.2765 19.8833 58.2765 19.9197C58.2765 19.9563 46.6783 19.9862 32.5028 19.9862C18.3273 19.9862 6.72909 19.9563 6.72909 19.9197C6.72909 19.8833 7.50446 18.7256 8.45212 17.3471L10.1753 14.841H32.5028H54.8303L56.5535 17.3471ZM61.9878 23.3833C62.3451 23.7854 62.4028 23.9494 62.4028 24.5596C62.4028 25.1699 62.3449 25.3338 61.9878 25.736L61.5727 26.2032L49.6723 26.2747C43.127 26.314 37.6697 26.4022 37.5449 26.4706C37.275 26.6187 36.9465 27.2881 36.9465 27.69C36.9465 27.8475 37.0148 28.1449 37.0983 28.351C37.4261 29.161 37.0049 29.1331 48.9383 29.1331H59.927V36.2791V43.4252H32.5028H5.07856V36.2791V29.1331H16.0673C28.0006 29.1331 27.5795 29.161 27.9073 28.351C27.9907 28.1449 28.0591 27.8475 28.0591 27.69C28.0591 27.2881 27.7306 26.6187 27.4607 26.4706C27.3359 26.4022 21.8786 26.314 15.3333 26.2747L3.43285 26.2032L3.01781 25.736C2.66205 25.3354 2.60276 25.1688 2.60276 24.5684C2.60276 23.8316 2.933 23.2416 3.49151 22.9805C3.63117 22.9152 16.7566 22.8739 32.6591 22.8889L61.5727 22.916L61.9878 23.3833ZM31.8819 26.4742C30.7813 27.1609 31.2418 29.1331 32.5028 29.1331C33.1461 29.1331 33.7724 28.4349 33.7724 27.7178C33.7724 26.6447 32.719 25.9518 31.8819 26.4742ZM8.90145 35.0494C8.05054 35.5802 8.07847 37.0919 8.94741 37.5375C9.40296 37.7712 55.5728 37.7865 56.0277 37.5533C56.384 37.3705 56.7529 36.7223 56.7529 36.2791C56.7529 35.8359 56.384 35.1878 56.0277 35.005C55.8136 34.8952 48.928 34.8514 32.4651 34.8549C13.4017 34.8591 9.15017 34.8942 8.90145 35.0494ZM62.4663 48.7132V51.1429H32.5028H2.53928V48.7132V46.2836H32.5028H62.4663V48.7132Z" fill="#1B68B2"/>
</svg>
