<svg width="20" height="24" viewBox="0 0 20 24" fill="none" xmlns="http://www.w3.org/2000/svg">
<path fill-rule="evenodd" clip-rule="evenodd" d="M9.64934 0.0617241C9.54263 0.0964999 8.73605 0.48429 7.85687 0.923563C6.55028 1.57632 6.23906 1.7525 6.15298 1.88832C6.06583 2.02578 5.96677 3.02058 5.57893 7.65364C5.32113 10.7332 5.11009 13.3214 5.10997 13.4054C5.10984 13.4958 5.07787 13.558 5.03135 13.5582C4.65749 13.5594 4.22552 13.7731 4.09925 14.0193C4.05536 14.1048 3.16614 17.9791 3.16614 18.0847C3.16614 18.0987 2.59918 18.1102 1.90621 18.1102C0.496176 18.1102 0.394483 18.129 0.13674 18.4387C0.000752341 18.6021 0 18.6161 0 21.0751C0 23.4988 0.00250761 23.5498 0.129279 23.6769C0.200376 23.7482 0.336426 23.85 0.431662 23.9032C0.604765 24 0.608715 24 10 24C19.3913 24 19.3952 24 19.5683 23.9032C19.6636 23.85 19.7996 23.7482 19.8707 23.6769C19.9975 23.5498 20 23.4988 20 21.0751C20 18.6161 19.9992 18.6021 19.8633 18.4387C19.6055 18.129 19.5038 18.1102 18.0938 18.1102C17.4008 18.1102 16.8339 18.0987 16.8339 18.0847C16.8339 17.9791 15.9446 14.1048 15.9008 14.0193C15.7745 13.7731 15.3425 13.5594 14.9687 13.5582C14.9256 13.558 14.8903 13.5025 14.8903 13.4348C14.8903 13.3671 14.6782 10.7772 14.4191 7.6795C14.034 3.07783 13.929 2.01762 13.8448 1.88475C13.7616 1.75349 13.4336 1.56825 12.1426 0.923235C11.2631 0.483867 10.4503 0.0951859 10.3364 0.0596122C10.0803 -0.0204988 9.89994 -0.0199356 9.64934 0.0617241ZM11.0884 2.08327C11.9687 2.52001 12.1292 2.61758 12.1305 2.71684C12.1314 2.78137 12.3294 5.18892 12.5705 8.06696C12.8117 10.945 13.009 13.3579 13.0092 13.4288C13.0093 13.5001 12.9516 13.5579 12.8803 13.5579H10C7.1763 13.5579 6.99047 13.5528 6.98903 13.4757C6.98815 13.4306 7.18928 10.9649 7.43599 7.99656C7.73486 4.40025 7.90796 2.58853 7.9548 2.56661C7.99342 2.5485 8.46238 2.31239 8.99687 2.04183C9.53135 1.77132 9.98646 1.5538 10.0083 1.55849C10.03 1.56318 10.5161 1.79934 11.0884 2.08327ZM14.5875 16.5146C14.777 17.3664 14.9179 18.0739 14.9007 18.0868C14.8597 18.1174 5.14025 18.1174 5.09931 18.0868C5.08213 18.0739 5.22301 17.3664 5.41248 16.5146C5.6137 15.6096 6.41641 14.9658 7.34346 14.9658H10H12.6565C13.5836 14.9658 14.3863 15.6096 14.5875 16.5146ZM18.1505 21.0668C18.1505 21.9222 17.4571 22.6155 16.6018 22.6155H10H3.39825C2.54292 22.6155 1.84953 21.9222 1.84953 21.0668C1.84953 20.2115 2.54292 19.5181 3.39825 19.5181H10H16.6017C17.4571 19.5181 18.1505 20.2115 18.1505 21.0668Z" fill="white"/>
</svg>
