<svg width="70" height="56" viewBox="0 0 70 56" fill="none" xmlns="http://www.w3.org/2000/svg">
<path fill-rule="evenodd" clip-rule="evenodd" d="M9.45292 0.512187C8.79645 0.773953 7.99677 1.47272 7.67646 2.06494C6.80463 3.67718 6.95385 10.5691 7.90002 12.3793C8.61279 13.7438 8.60896 14.1116 7.86613 15.5849C7.86613 15.6969 7.70597 16.5016 8.61506 16.5016C9.52415 16.5016 8.61506 16.5016 9.0696 16.5016L9.52415 16.0016L9.55404 15.9223L13.254 15.8688C16.8129 15.8169 16.9655 15.8683 17.2612 17.2209C18.4424 22.6212 21.3968 25.0788 28.0358 26.1837C29.7861 26.4747 30.0921 26.7202 29.9489 27.7164C29.7248 29.2735 27.6674 29.5072 23.8483 28.4087C20.5228 27.452 16.3576 24.1437 15.301 21.6196C14.5839 19.9067 13.107 19.3659 13.107 20.8169C13.107 21.9359 14.4669 24.4838 15.5306 25.3573C16.0472 25.7819 16.3866 26.9209 16.3866 28.2308V30.4017L13.8504 30.0577C12.456 29.8684 10.7342 29.7138 10.0241 29.7138C8.83799 29.7138 8.73414 29.4931 8.73414 26.9701C8.73414 24.4471 9.52415 16.5016 8.61506 16.5016C7.25142 16.5016 5.88778 25.5016 6.54772 33.8761L6.27442 43.1628L3.13144 46.7589C-0.0683756 50.4198 -0.601315 51.9504 0.568418 54.1132C1.30305 55.4718 3.50095 56.3134 5.20745 55.8899C5.9317 55.7098 8.37447 53.5107 10.6358 51.0029C14.1329 47.1239 14.7468 46.1531 14.7468 44.5025C14.7468 42.8383 14.8638 42.6577 15.5667 43.2348C16.1751 43.734 16.3866 45.0666 16.3866 48.3949C16.3866 50.8622 16.5396 53.2755 16.726 53.7568C17.2382 55.0775 19.9953 56.2896 21.5875 55.8942C24.1085 55.2679 24.5857 53.8455 24.5857 46.9547V40.6398L21.429 37.193C18.3801 33.8642 18.2789 33.6576 18.4795 31.1627C18.5938 29.7419 18.8463 28.6564 19.0404 28.7505C19.2344 28.8446 20.6725 29.3963 22.2369 29.9766C24.9617 30.9869 25.088 31.1227 25.2432 33.2119L25.4056 35.3926L29.1826 35.5543C31.7702 35.6652 33.0936 35.5029 33.3833 35.0394C34.1234 33.8539 33.3499 33.4996 30.0194 33.4996C27.1367 33.4996 26.7721 33.3785 26.7721 32.418C26.7721 31.5764 27.1367 31.3363 28.4119 31.3363C30.483 31.3363 32.2381 29.638 32.2381 27.6342C32.2381 25.7618 30.8825 24.4573 28.6852 24.2156C27.0968 24.0404 27.0405 23.9371 26.8814 20.9251L26.7174 17.8153H28.9312H31.1449V20.1409C31.1449 23.096 31.8506 23.7645 34.9711 23.7645C38.0917 23.7645 38.7974 23.096 38.7974 20.1409V17.8153H41.0111H43.2249L43.0609 20.9251C42.9018 23.9371 42.8455 24.0404 41.2571 24.2156C39.0597 24.4573 37.7042 25.7618 37.7042 27.6342C37.7042 29.638 39.4593 31.3363 41.5304 31.3363C42.7925 31.3363 43.1702 31.5797 43.1702 32.392C43.1702 33.3098 42.7225 33.4694 39.7539 33.6089C37.1537 33.7317 36.3376 33.9637 36.3376 34.5813C36.3376 35.2303 37.1576 35.3926 40.4372 35.3926H44.5367L44.699 33.2119C44.8543 31.1227 44.9805 30.9869 47.7054 29.9766C49.2698 29.3963 50.7079 28.8446 50.9019 28.7505C51.096 28.6564 51.3485 29.7441 51.4627 31.1675C51.66 33.617 51.5305 33.9091 49.0435 36.6268C46.5881 39.3093 46.1678 40.5398 47.7119 40.5235C48.7248 40.5133 53.5557 34.7858 53.5557 33.5959C53.5557 33.0118 53.9449 32.3861 54.4204 32.2054C55.5464 31.7776 61.7547 31.7782 61.7547 32.206C61.7547 32.3866 59.418 35.0313 56.562 38.0833L51.3693 43.6317V48.1926C51.3693 52.8774 50.9156 54.0516 49.1058 54.0516C47.6245 54.0516 47.2905 53.0662 46.9964 47.8319C46.8368 44.9898 46.4957 43.0195 46.1765 43.0969C45.8732 43.1704 45.56 45.5485 45.4725 48.4398C45.3014 54.1051 45.7507 55.2474 48.4078 55.9072C49.9459 56.289 52.7145 55.051 53.2162 53.7568C53.4026 53.2755 53.5557 50.8622 53.5557 48.3949C53.5557 45.0666 53.7672 43.734 54.3756 43.2348C55.0785 42.6577 55.1955 42.8383 55.1955 44.5025C55.1955 46.1531 55.8093 47.1239 59.3065 51.0029C63.7291 55.9077 65.2317 56.7011 67.7056 55.435C71.0328 53.733 70.7622 51.243 66.7573 46.7107L63.5613 43.0931L63.2426 30.18C62.9944 20.1095 62.7386 16.8986 62.0805 15.5935C61.3333 14.1116 61.3289 13.7444 62.0423 12.3793C62.5402 11.4269 62.8479 9.30138 62.8479 6.8146C62.8479 1.24557 62.0783 0.352098 57.0375 0.0724839C53.8197 -0.105993 53.067 0.0319209 51.7792 1.0368C50.3334 2.16445 50.2761 2.4008 50.2761 7.20021C50.2761 10.0894 50.5275 12.4393 50.8735 12.7817C51.3059 13.2095 51.2873 14.2484 50.8068 16.5389C50.2968 18.9705 49.7048 20.1133 48.2574 21.4643C45.3435 24.1837 44.81 23.87 44.81 19.4378V15.6519H34.9711H25.1323V19.4378C25.1323 23.87 24.5988 24.1837 21.6848 21.4643C20.2374 20.1133 19.6454 18.9705 19.1355 16.5389C18.655 14.2484 18.6364 13.2095 19.0688 12.7817C19.4148 12.4393 19.6662 10.0894 19.6662 7.20021C19.6662 2.45272 19.5963 2.15472 18.2259 1.08872C17.1404 0.243389 16.0308 -0.0237859 13.7164 0.00163357C12.0285 0.020563 10.1099 0.25042 9.45292 0.512187ZM17.5804 3.48518C18.3795 5.2202 17.8548 5.71885 16.0745 4.91625C14.4593 4.18774 13.6536 4.49169 13.6536 5.82864C13.6536 7.39113 12.04 9.16184 10.6161 9.16184C9.3682 9.16184 9.28074 8.97471 9.28074 6.29539C9.28074 4.71884 9.57591 3.13688 9.93667 2.77993C10.2974 2.42298 12.0247 2.13092 13.7744 2.13092C16.6397 2.13092 17.0185 2.26559 17.5804 3.48518ZM60.0056 2.77993C60.3664 3.13688 60.6615 4.71884 60.6615 6.29539C60.6615 8.96984 60.5724 9.16184 59.3338 9.16184C57.647 9.16184 56.2887 7.83192 56.2887 6.18073C56.2887 4.4998 55.5951 4.13744 53.8678 4.91625C52.0875 5.71885 51.5628 5.2202 52.3619 3.48518C52.9238 2.26559 53.3026 2.13092 56.1679 2.13092C57.9176 2.13092 59.6448 2.42298 60.0056 2.77993ZM17.5246 7.53932C18.7299 7.53932 17.9756 10.918 16.4287 12.4485C14.65 14.2084 12.8681 14.4529 11.0424 13.1873C9.43324 12.0726 9.5043 11.3252 11.2185 11.3252C12.7834 11.3252 15.2934 9.13913 15.2934 7.77621C15.2934 7.18345 15.5847 6.99307 16.1581 7.21103C16.6337 7.39167 17.2486 7.53932 17.5246 7.53932ZM54.6489 7.83408C54.6489 9.14832 57.1895 11.3252 58.7238 11.3252C60.438 11.3252 60.509 12.0726 58.8998 13.1873C57.0742 14.4529 55.2922 14.2084 53.5136 12.4485C51.6535 10.608 51.296 7.77891 52.8724 7.37112C54.5226 6.94494 54.6489 6.97739 54.6489 7.83408ZM60.7342 19.4378C60.9244 21.3713 61.1092 24.4746 61.1442 26.3335C61.2049 29.5429 61.1431 29.7138 59.9181 29.7138C59.2081 29.7138 57.4863 29.8684 56.0919 30.0577L53.5557 30.4017V28.2308C53.5557 26.9209 53.8951 25.7819 54.4117 25.3573C55.4753 24.4838 56.8353 21.9359 56.8353 20.8169C56.8353 19.3659 55.3584 19.9067 54.6412 21.6196C53.043 25.4373 46.1765 29.4747 41.9633 29.0734C40.5941 28.9436 40.1229 28.6191 39.9933 27.7164C39.8501 26.7202 40.1562 26.4747 41.9064 26.1837C48.5455 25.0788 51.4999 22.6212 52.6811 17.2209C52.9768 15.8683 53.1293 15.8169 56.6883 15.8688L60.3882 15.9223L60.7342 19.4378ZM36.6109 19.7082C36.6109 21.4508 36.4809 21.6012 34.9711 21.6012C33.4614 21.6012 33.3313 21.4508 33.3313 19.7082C33.3313 17.9656 33.4614 17.8153 34.9711 17.8153C36.4809 17.8153 36.6109 17.9656 36.6109 19.7082ZM15.5219 32.2054C15.9974 32.3861 16.3866 33.0161 16.3866 33.6062C16.3866 34.1957 17.6389 36.0562 19.1694 37.7398C22.6813 41.6036 22.9458 42.3105 22.9458 47.8287C22.9458 52.3766 22.303 54.0516 20.5566 54.0516C19.0415 54.0516 18.573 52.6686 18.573 48.1926V43.6317L13.3803 38.0833C10.5243 35.0313 8.18753 32.3866 8.18753 32.206C8.18753 31.7782 14.3959 31.7776 15.5219 32.2054ZM12.5604 42.9941C12.5604 45.6296 12.3833 45.9779 9.24576 49.5096C5.49387 53.7325 4.24378 54.5367 3.00791 53.5215C1.57417 52.3441 2.07595 50.9569 5.18121 47.5139L8.18753 44.1802V40.0822V35.9843L10.374 38.0968C12.3652 40.0206 12.5604 40.4576 12.5604 42.9941ZM64.7835 47.5382C67.8674 50.958 68.3659 52.3458 66.9344 53.5215C65.6985 54.5367 64.4484 53.7325 60.6965 49.5096C57.5749 45.9958 57.3819 45.6193 57.3819 43.0422C57.3819 40.6106 57.6104 40.0741 59.4317 38.2255L61.4814 36.1454L61.6405 40.1871L61.799 44.2294L64.7835 47.5382Z" fill="#1B68B2"/>
</svg>
