<svg width="24" height="15" viewBox="0 0 24 15" fill="none" xmlns="http://www.w3.org/2000/svg">
<path d="M12.384 5C12.28 5.00333 12.18 5.04833 12.1064 5.12667L9.996 7.31833L8.696 5.96833C8.332 5.57333 7.744 6.18333 8.124 6.56167L9.7104 8.21C9.868 8.37417 10.124 8.37417 10.2824 8.21L12.6784 5.72083C12.9424 5.45417 12.7472 5 12.384 5ZM0.4 8.33333H2.8C3.0216 8.33333 3.2 8.51917 3.2 8.75C3.2 8.98083 3.0216 9.16667 2.8 9.16667H0.4C0.1784 9.16667 0 8.98083 0 8.75C0 8.51917 0.1784 8.33333 0.4 8.33333ZM0.4 5H2.8C3.0216 5 3.2 5.18583 3.2 5.41667C3.2 5.6475 3.0216 5.83333 2.8 5.83333H0.4C0.1784 5.83333 0 5.6475 0 5.41667C0 5.18583 0.1784 5 0.4 5ZM0.4 1.66667H2.8C3.0216 1.66667 3.2 1.8525 3.2 2.08333C3.2 2.31417 3.0216 2.5 2.8 2.5H0.4C0.1784 2.5 0 2.31417 0 2.08333C0 1.8525 0.1784 1.66667 0.4 1.66667ZM19.6 10.8333C18.5 10.8333 17.6 11.7708 17.6 12.9167C17.6 14.0625 18.5 15 19.6 15C20.7 15 21.6 14.0625 21.6 12.9167C21.6 11.7708 20.7 10.8333 19.6 10.8333ZM19.6 11.6667C20.2672 11.6667 20.8 12.2217 20.8 12.9167C20.8 13.6117 20.2672 14.1667 19.6 14.1667C18.9328 14.1667 18.4 13.6117 18.4 12.9167C18.4 12.2217 18.9328 11.6667 19.6 11.6667ZM9.2 10.8333C8.1 10.8333 7.2 11.7708 7.2 12.9167C7.2 14.0625 8.1 15 9.2 15C10.3 15 11.2 14.0625 11.2 12.9167C11.2 11.7708 10.3 10.8333 9.2 10.8333ZM9.2 11.6667C9.8672 11.6667 10.4 12.2217 10.4 12.9167C10.4 13.6117 9.8672 14.1667 9.2 14.1667C8.5328 14.1667 8 13.6117 8 12.9167C8 12.2217 8.5328 11.6667 9.2 11.6667ZM5.2 0C4.5424 0 4 0.565 4 1.25V10.4167C4 11.1017 4.5424 11.6667 5.2 11.6667H6.8C7.3408 11.675 7.3408 10.825 6.8 10.8333H5.2C4.9712 10.8333 4.8 10.655 4.8 10.4167V1.25C4.8 1.01167 4.9712 0.833333 5.2 0.833333H15.6C15.8288 0.833333 16 1.01167 16 1.25V10.8333H11.6C11.072 10.8333 11.0816 11.675 11.6 11.6667H17.2C17.728 11.6667 17.7232 10.8333 17.2 10.8333H16.8V3.33333H20.1816L23.2 8.24667V10.4167C23.2 10.655 23.0288 10.8333 22.8 10.8333H22C21.4768 10.8333 21.4768 11.6667 22 11.6667H22.8C23.4576 11.6667 24 11.1017 24 10.4167V8.125C24 8.04583 23.9784 7.96667 23.9376 7.9L20.7376 2.69167C20.664 2.5725 20.5376 2.5 20.4 2.5H16.8V1.25C16.8 0.565 16.2576 0 15.6 0H5.2Z" fill="#1B68B2"/>
</svg>
