<svg width="62" height="54" viewBox="0 0 62 54" fill="none" xmlns="http://www.w3.org/2000/svg">
<path fill-rule="evenodd" clip-rule="evenodd" d="M11.1299 1.2143C9.67725 2.72474 9.11701 3.74617 9.03591 5.03168C8.9579 6.26713 9.28609 7.17297 10.1617 8.13979C10.7145 8.75007 10.9573 8.91813 11.286 8.91813C11.8596 8.91813 11.7285 9.25171 11.1188 9.34361C10.696 9.40729 10.5688 9.33411 9.86391 8.62214C8.97069 7.7197 8.14565 7.34358 6.13785 6.92307C4.49395 6.57872 4.18192 6.69586 4.11923 7.68099C4.07454 8.38572 4.47863 10.1071 4.93191 11.1414C5.29004 11.9587 6.21642 12.9334 6.93507 13.2488C7.26537 13.3937 7.55167 13.5214 7.57135 13.5323C7.63333 13.567 7.30065 14.4493 7.22559 14.4493C7.18624 14.4493 6.76556 14.2628 6.29063 14.0348C5.27697 13.5482 3.36503 13.0311 2.57934 13.0311C2.2042 13.0311 1.94502 13.1227 1.77074 13.3171C1.53531 13.5797 1.52814 13.696 1.685 14.7294C1.99506 16.7736 2.6915 18.4188 3.61929 19.2985C4.08663 19.7417 5.14639 20.2565 5.6008 20.2611C5.90144 20.2641 5.91114 20.3019 5.82709 21.1506C5.77874 21.6382 5.7228 22.0572 5.70284 22.0818C5.68274 22.1064 5.39124 22.0454 5.05489 21.9461C4.69255 21.8393 3.62913 21.7633 2.44567 21.7596C0.752293 21.7544 0.411734 21.7898 0.210322 21.9931C-0.175074 22.3815 -0.0468899 23.0352 0.728399 24.637C1.31099 25.8404 1.64874 26.3377 2.39564 27.0914C3.43713 28.1423 4.22774 28.4901 5.57578 28.4901C6.26772 28.4901 6.30989 28.5114 6.38677 28.899C6.43133 29.1239 6.50709 29.4657 6.55501 29.6586L6.64216 30.0092L4.76971 30.0929C2.6922 30.1858 1.31886 30.463 1.04169 30.8454C0.7336 31.2706 0.831846 31.6481 1.56272 32.8466C2.77892 34.8406 4.27089 36.262 5.55315 36.6482L6.12998 36.8219L5.36875 37.052C4.48889 37.3179 4.09197 37.6285 4.09197 38.0514C4.09197 38.5329 5.31197 40.2416 6.53899 41.4789C7.93974 42.8911 8.87076 43.3892 10.3024 43.4926C11.2876 43.5638 11.2959 43.5676 10.8943 43.7721C9.79588 44.3316 9.87248 44.7897 11.2953 46.1677C12.645 47.475 13.4334 48.0482 14.7417 48.6736C15.5743 49.0716 15.8307 49.1258 16.8823 49.1258C17.9291 49.1258 18.1901 49.0712 18.9906 48.6851C19.559 48.4111 20.19 47.948 20.6609 47.4599L21.4175 46.6751L22.2327 46.953L23.0479 47.2308L22.4996 48.0866C21.3729 49.8458 20.978 51.6693 21.5003 52.7022C21.902 53.497 22.5234 53.9144 23.4157 53.989C24.7489 54.1006 25.6485 53.3639 26.0251 51.8529C26.4106 50.3053 27.5842 49.4379 29.9371 48.9618C31.0372 48.7391 31.1659 48.7398 32.1805 48.9757C34.527 49.5212 35.5246 50.2482 35.9393 51.7146C36.257 52.8386 36.6337 53.4114 37.271 53.7395C38.3146 54.2767 39.6992 53.9495 40.3962 53.001C41.1369 51.9929 40.598 49.4386 39.275 47.6869L38.9382 47.2409L39.7682 46.9581L40.5982 46.6751L41.3548 47.4599C41.8256 47.948 42.4567 48.4111 43.0251 48.6851C43.8255 49.0712 44.0865 49.1258 45.1334 49.1258C46.185 49.1258 46.4414 49.0716 47.274 48.6736C48.5823 48.0482 49.3706 47.475 50.7203 46.1677C52.1432 44.7897 52.2198 44.3316 51.1213 43.7721C50.7198 43.5676 50.7281 43.5638 51.7132 43.4926C53.1312 43.3902 54.0652 42.8895 55.4757 41.476C56.7007 40.2483 57.9237 38.5373 57.9237 38.0514C57.9237 37.6285 57.5268 37.3179 56.6469 37.052L55.8857 36.8219L56.4625 36.6482C57.7448 36.262 59.2367 34.8406 60.4529 32.8466C61.1838 31.6481 61.282 31.2706 60.9739 30.8454C60.6968 30.463 59.3234 30.1858 57.2459 30.0929L55.3735 30.0092L55.4606 29.6586C55.5086 29.4657 55.5843 29.1239 55.6289 28.899C55.7058 28.5114 55.7479 28.4901 56.4399 28.4901C57.7872 28.4901 58.5787 28.1422 59.618 27.0933C60.3571 26.3475 60.7044 25.8382 61.2763 24.6618C62.0472 23.0758 62.1876 22.3 61.7671 21.948C61.4586 21.6897 57.8348 21.6884 56.9607 21.9461C56.6244 22.0454 56.3329 22.1064 56.3128 22.0818C56.2928 22.0572 56.2369 21.6382 56.1886 21.1506C56.1045 20.3019 56.1142 20.2641 56.4148 20.2611C56.8693 20.2565 57.929 19.7417 58.3964 19.2985C59.3241 18.4188 60.0206 16.7736 60.3306 14.7294C60.4875 13.696 60.4803 13.5797 60.2449 13.3171C60.0706 13.1227 59.8114 13.0311 59.4363 13.0311C58.6506 13.0311 56.7387 13.5482 55.725 14.0348C55.2501 14.2628 54.8294 14.4493 54.7901 14.4493C54.715 14.4493 54.3823 13.567 54.4443 13.5323C54.464 13.5214 54.7503 13.3937 55.0806 13.2488C55.7992 12.9334 56.7256 11.9587 57.0837 11.1414C57.537 10.1071 57.9411 8.38572 57.8964 7.68099C57.8337 6.69586 57.5217 6.57872 55.8778 6.92307C53.87 7.34358 53.0449 7.7197 52.1517 8.62214C51.4469 9.33411 51.3197 9.40729 50.8969 9.34361C50.2872 9.25171 50.156 8.91813 50.7296 8.91813C51.3072 8.91813 52.468 7.63773 52.7972 6.63757C53.3831 4.8578 52.8002 3.20369 50.8858 1.21387C49.78 0.0645148 49.6415 -0.034764 49.2027 0.00764191C48.6049 0.0656487 48.2699 0.611821 47.6533 2.53314C47.0796 4.32142 47.0404 5.60366 47.529 6.59545L47.8742 7.29621L46.82 6.99228C45.0495 6.48185 44.7387 6.46696 44.3357 6.87357C44.0338 7.17821 43.9986 7.30827 44.0777 7.82409C44.3765 9.77292 45.1273 11.7108 45.9061 12.5442L46.3759 13.0467L46.0397 13.1757C45.8489 13.2489 45.6627 13.4688 45.6091 13.6836C45.4873 14.1738 46.0974 16.6776 46.6 17.7498C46.9524 18.5012 46.9637 18.5809 46.759 18.8756C46.5929 19.115 46.5392 19.5588 46.54 20.6859C46.5413 22.545 46.7361 23.8042 47.1718 24.769L47.509 25.5156L46.9062 25.159C46.1639 24.7201 45.9667 24.715 45.5854 25.1246C45.3698 25.356 45.2247 25.8246 45.0694 26.791C44.7445 28.8133 44.7876 30.588 45.1927 31.8623C45.2704 32.1069 44.9951 31.9423 44.0574 31.1831C42.6758 30.0646 42.3324 29.9179 41.847 30.239C41.224 30.6508 40.5443 34.0362 40.6715 36.0937C40.713 36.7628 40.7012 37.2564 40.6452 37.1904C40.5894 37.1245 40.2551 36.6557 39.9021 36.1487C39.5494 35.6417 38.8886 34.828 38.4341 34.3404C37.5465 33.3885 37.0888 33.2259 36.6558 33.7089C36.3449 34.0555 35.528 35.8638 35.0969 37.1598C34.3353 39.449 34.3319 41.11 35.0861 42.4937C35.2661 42.8244 35.371 43.1197 35.319 43.1502C35.267 43.1806 34.2743 43.3515 33.1129 43.53L31.0015 43.8545L28.8963 43.5331C27.7386 43.3564 26.7486 43.1855 26.6966 43.1533C26.6446 43.1211 26.7495 42.8244 26.9295 42.4937C27.6837 41.11 27.6804 39.449 26.9187 37.1598C26.4876 35.8638 25.6707 34.0555 25.3598 33.7089C24.9268 33.2259 24.4692 33.3885 23.5816 34.3404C23.127 34.828 22.4663 35.6417 22.1135 36.1487C21.7606 36.6557 21.4262 37.1245 21.3704 37.1904C21.3145 37.2564 21.3027 36.7628 21.3441 36.0937C21.4713 34.0362 20.7916 30.6508 20.1687 30.239C19.6832 29.9179 19.3398 30.0646 17.9582 31.1831C17.0206 31.9423 16.7452 32.1069 16.823 31.8623C17.228 30.588 17.2712 28.8133 16.9462 26.791C16.7909 25.8246 16.6459 25.356 16.4303 25.1246C16.0489 24.715 15.8517 24.7201 15.1095 25.159L14.5066 25.5156L14.8438 24.769C15.2795 23.8042 15.4744 22.545 15.4756 20.6859C15.4765 19.5481 15.4235 19.116 15.2528 18.8702C15.0434 18.5684 15.0535 18.4958 15.4108 17.7396C15.9163 16.6698 16.5286 14.1748 16.4065 13.6836C16.3529 13.4688 16.1667 13.2489 15.976 13.1757L15.6398 13.0467L16.1095 12.5442C16.8883 11.7108 17.6391 9.77292 17.938 7.82409C18.0171 7.30827 17.9818 7.17821 17.6799 6.87357C17.2769 6.46696 16.9662 6.48185 15.1956 6.99228L14.1415 7.29621L14.4867 6.59545C14.9752 5.60366 14.936 4.32142 14.3623 2.53314C13.7457 0.611821 13.4108 0.0656487 12.813 0.00764191C12.3742 -0.034764 12.2357 0.0645145 11.1299 1.2143ZM13.0289 4.10769C13.3024 5.43135 13.0324 6.24855 12.1351 6.81259C11.5827 7.15978 11.3528 7.09283 10.9803 6.47646C10.3948 5.50736 10.7165 4.19193 11.8595 2.8816L12.4457 2.20963L12.6408 2.69198C12.748 2.95719 12.9228 3.59428 13.0289 4.10769ZM51.0238 4.1403C51.3989 4.92219 51.4036 5.86689 51.0353 6.47646C50.6582 7.10049 50.4335 7.15964 49.842 6.79089C48.8391 6.16529 48.643 5.03182 49.2166 3.17475L49.5231 2.18268L50.1265 2.85522C50.4584 3.2251 50.8622 3.80333 51.0238 4.1403ZM15.8222 9.52033C15.2701 11.2367 14.6177 11.8965 13.4725 11.8965C12.909 11.8965 12.8265 11.8555 12.7472 11.5367C12.5437 10.7185 13.1246 9.69066 14.0712 9.19384C14.6728 8.87814 15.9663 8.51521 16.0153 8.64824C16.0409 8.71802 15.9541 9.11045 15.8222 9.52033ZM47.9444 9.20363C48.8743 9.68413 49.4697 10.7274 49.2707 11.5276C49.1887 11.8569 49.1106 11.8965 48.5432 11.8965C47.4093 11.8965 46.8093 11.3157 46.2508 9.67747C45.8444 8.48599 45.852 8.47067 46.7146 8.72865C47.1204 8.85006 47.6739 9.06379 47.9444 9.20363ZM7.10148 8.92452C7.62195 9.08676 8.24713 9.40502 8.5198 9.64669C9.05193 10.1181 9.35651 10.9511 9.2109 11.5367C9.13402 11.8457 9.04322 11.8965 8.56745 11.8965C7.33663 11.8965 6.37946 10.8518 5.99589 9.08974C5.87825 8.54924 5.89118 8.5474 7.10148 8.92452ZM56.0197 9.08974C55.6362 10.8518 54.679 11.8965 53.4482 11.8965C52.9724 11.8965 52.8816 11.8457 52.8047 11.5367C52.6694 10.9925 52.9495 10.1588 53.4208 9.70328C53.6523 9.47948 54.27 9.14902 54.7934 8.96905C56.076 8.52797 56.1406 8.53435 56.0197 9.08974ZM11.1762 12.1774C11.2568 12.7894 11.207 13.0353 10.8246 13.9179C10.5796 14.4832 10.19 15.1644 9.95878 15.4318C9.26023 16.2395 9.10085 16.7821 9.08145 18.4205C9.07161 19.2395 8.98194 20.9264 8.88186 22.1692C8.78193 23.4119 8.73639 24.6564 8.78081 24.9348C9.13345 27.1459 9.48427 28.7841 9.90481 30.1836C10.1757 31.0854 10.4658 32.0881 10.5492 32.4121C10.6327 32.7362 10.906 33.2922 11.1563 33.6477C11.4068 34.0032 11.9531 34.7911 12.3705 35.3987C12.788 36.0062 13.3915 36.8224 13.7117 37.2124C14.0317 37.6024 14.4929 38.3364 14.7364 38.8434C15.3258 40.0705 16.0108 40.737 16.7064 40.76C17.091 40.7728 17.5569 40.9906 18.4283 41.5654C19.0854 41.9989 19.8881 42.4886 20.2122 42.6535C20.5364 42.8186 20.9791 43.1888 21.1961 43.476C21.7804 44.2494 22.8882 45.0843 23.3252 45.0806C23.5308 45.0789 23.9703 44.9532 24.3018 44.8015C24.8502 44.5503 24.9768 44.5422 25.7073 44.7116L26.5101 44.8976L25.5206 45.403L24.5311 45.9083L23.3421 45.5159C21.3946 44.8732 20.9856 44.6653 20.6768 44.1613C19.9626 42.9951 18.3144 41.9674 17.1544 41.965C16.5767 41.9637 16.4138 41.8794 15.5195 41.1198C14.7352 40.4537 14.4371 40.0844 14.1035 39.365C13.6103 38.3015 12.8542 37.4067 12.0433 36.9272C11.2661 36.4677 10.5913 35.3244 10.4038 34.1497C10.2144 32.9631 9.867 32.1969 9.1752 31.4395C8.69901 30.9182 8.55142 30.5966 8.22576 29.3713L7.84023 27.9204L8.12372 27.6024C8.5541 27.1198 8.59893 26.8615 8.44376 25.7571C8.35128 25.0999 8.15338 24.4771 7.8831 23.9939C7.52525 23.3542 7.46551 23.0989 7.46678 22.2164C7.46903 20.7657 7.58878 20.16 7.889 20.0807C8.43505 19.9366 8.66092 19.294 8.64447 17.9306C8.63604 17.225 8.6113 16.4562 8.58965 16.2222C8.56801 15.9882 8.75354 15.2701 9.0019 14.6266C9.344 13.7402 9.51716 13.4566 9.71647 13.4566C9.8611 13.4566 10.1492 13.3092 10.3568 13.1291C10.6493 12.8752 10.7498 12.6368 10.8039 12.0681C10.8892 11.1725 11.0503 11.2197 11.1762 12.1774ZM51.6656 13.1349C51.8694 13.3118 52.1545 13.4566 52.2992 13.4566C52.4985 13.4566 52.6716 13.7402 53.0137 14.6266C53.2621 15.2701 53.4476 15.9882 53.426 16.2222C53.4043 16.4562 53.3796 17.225 53.3712 17.9306C53.3547 19.294 53.5806 19.9366 54.1266 20.0807C54.4253 20.1595 54.5466 20.7653 54.5489 22.1891C54.5501 23.0318 54.4843 23.3153 54.137 23.9623C53.7013 24.7741 53.3504 26.456 53.5075 26.9798C53.5577 27.1474 53.7286 27.4277 53.8871 27.6024L54.1754 27.9204L53.7899 29.3713C53.4642 30.5966 53.3166 30.9182 52.8404 31.4395C52.1486 32.1969 51.8012 32.9631 51.6119 34.1497C51.4397 35.2281 50.7352 36.5006 50.1361 36.8153C49.3168 37.2457 48.4171 38.2555 47.9585 39.2595C47.5933 40.0588 47.3252 40.4011 46.5308 41.0807C45.6585 41.8271 45.4807 41.9202 44.8863 41.9411C43.6477 41.9847 42.0668 43.0139 41.1979 44.3424C40.6984 45.1061 37.2146 46.0968 32.6152 46.7832C31.0255 47.0205 29.264 47.3434 28.7005 47.501C26.2767 48.1788 25.1365 49.174 24.4832 51.1819C24.3209 51.6809 24.1096 52.1394 24.0138 52.2008C23.6885 52.4093 23.2184 52.3194 23.0587 52.0183C22.6711 51.2876 23.6346 49.0412 24.794 47.9724C26.272 46.6098 27.8724 46.0635 32.452 45.3579C33.9769 45.123 35.6518 44.8409 36.1741 44.731C37.0565 44.5453 37.1663 44.5506 37.7202 44.8043C38.0482 44.9545 38.4848 45.0789 38.6904 45.0806C39.1274 45.0843 40.2353 44.2494 40.8195 43.476C41.0365 43.1888 41.4793 42.8195 41.8034 42.6552C42.1275 42.4911 42.9282 41.9997 43.5829 41.5632C44.4707 40.9713 44.9085 40.7661 45.3048 40.756C46.0047 40.7383 46.6863 40.078 47.2792 38.8434C47.5228 38.3364 47.9839 37.6024 48.304 37.2124C48.6241 36.8224 49.2277 36.0062 49.6451 35.3987C50.0626 34.7911 50.6089 34.0032 50.8594 33.6477C51.1097 33.2922 51.3832 32.7362 51.4671 32.4121C51.551 32.0881 51.8373 31.0869 52.1031 30.1872C52.369 29.2876 52.6811 28.0112 52.7965 27.3507C52.9118 26.6903 53.0764 25.8265 53.1622 25.4311C53.2791 24.8918 53.2726 24.1114 53.1363 22.3109C53.0362 20.9902 52.9459 19.2395 52.9355 18.4205C52.9147 16.7824 52.7548 16.2388 52.0569 15.4318C51.8257 15.1644 51.4348 14.4803 51.1882 13.9114C50.8075 13.0329 50.7545 12.7766 50.836 12.2095C50.9783 11.219 51.0913 11.1648 51.1988 12.0357C51.272 12.6277 51.3833 12.89 51.6656 13.1349ZM4.49606 15.142C6.37806 15.733 7.04357 16.4377 7.04357 17.8391V18.5623H6.29134C5.08188 18.5623 4.32852 17.9113 3.82913 16.4349C3.45568 15.3308 3.36376 14.8748 3.51458 14.8748C3.5864 14.8748 4.02816 14.9951 4.49606 15.142ZM58.5411 15.2648C58.0022 17.5811 57.1641 18.5623 55.7243 18.5623H54.9721V17.8391C54.9721 16.4514 55.6303 15.7434 57.4736 15.1487C58.5785 14.7921 58.6492 14.7999 58.5411 15.2648ZM14.4168 15.4776C14.2032 16.4793 13.6094 17.7176 13.1454 18.1286C12.2624 18.9109 10.9237 19.0252 10.7515 18.333C10.4627 17.1718 11.3716 16.0376 13.0895 15.4159C14.4872 14.9098 14.5376 14.9121 14.4168 15.4776ZM48.8565 15.405C50.2176 15.8798 51.0976 16.6359 51.2504 17.4621C51.4623 18.6075 51.0193 19.0049 49.8769 18.6945C49.0984 18.483 48.339 17.6908 47.9831 16.7186C47.6199 15.7265 47.4674 15.0171 47.6171 15.0149C47.6812 15.0141 48.2389 15.1895 48.8565 15.405ZM13.7567 21.8597C13.7165 22.5032 13.5984 23.3154 13.4942 23.6646C13.2344 24.5361 12.4675 25.2794 11.6013 25.4996C10.956 25.6635 10.8987 25.6553 10.6653 25.3645C10.4932 25.1498 10.4171 24.8094 10.4175 24.255C10.4187 22.9985 10.9812 22.2583 12.7535 21.1814C13.1985 20.9109 13.6228 20.6897 13.6962 20.6897C13.7756 20.6897 13.8001 21.1637 13.7567 21.8597ZM49.2791 21.2031C51.0598 22.2866 51.597 22.9935 51.5981 24.255C51.5985 24.8094 51.5225 25.1498 51.3503 25.3645C51.117 25.6553 51.0596 25.6635 50.4144 25.4996C49.5481 25.2794 48.7813 24.5361 48.5214 23.6646C48.292 22.8955 48.1361 20.6895 48.3111 20.6901C48.38 20.6902 48.8156 20.9211 49.2791 21.2031ZM4.30926 23.5394C4.76648 23.6246 5.31239 23.7842 5.52251 23.8938C6.14769 24.22 6.65649 25.0161 6.72944 25.7819C6.79283 26.4478 6.78271 26.4696 6.33589 26.6268C5.3509 26.9733 4.46429 26.7751 3.68788 26.035C3.17908 25.5499 2.34588 24.3272 2.12549 23.7422C1.99183 23.3876 1.99731 23.3844 2.73437 23.3844C3.14338 23.3844 3.85218 23.4541 4.30926 23.5394ZM59.8901 23.7422C59.6698 24.3272 58.8366 25.5499 58.3278 26.035C57.5514 26.7751 56.6647 26.9733 55.6798 26.6268C55.2329 26.4696 55.2228 26.4478 55.2862 25.7819C55.3555 25.0538 55.8521 24.2394 56.4185 23.9247C56.8986 23.6579 58.1833 23.4093 59.15 23.3963L60.0249 23.3844L59.8901 23.7422ZM11.7988 27.7628L11.1899 28.4538L11.076 28.0292C10.9129 27.4207 11.0325 27.2392 11.6388 27.1757C11.933 27.1447 12.2263 27.1089 12.2907 27.0957C12.3551 27.0826 12.1337 27.3829 11.7988 27.7628ZM15.4593 29.1283C15.4786 30.6751 15.3171 31.319 14.7454 31.9759C14.2653 32.5277 13.8096 32.8025 13.1302 32.9501C12.7114 33.041 12.6616 33.0091 12.3923 32.4764C12.1985 32.093 12.1035 31.6327 12.1035 31.0764C12.1035 29.8515 12.7316 28.9551 14.5631 27.5664L15.2659 27.0335L15.3547 27.4427C15.4035 27.6678 15.4506 28.4263 15.4593 29.1283ZM48.3092 28.2701C49.4767 29.2873 49.9122 30.0495 49.9122 31.0764C49.9122 31.6327 49.8172 32.093 49.6233 32.4764C49.354 33.0091 49.3043 33.041 48.8854 32.9501C47.857 32.7267 46.9516 31.8987 46.6879 30.9404C46.5256 30.3509 46.4921 28.4399 46.6294 27.6017L46.7168 27.0679L47.1149 27.3222C47.3339 27.4621 47.8712 27.8886 48.3092 28.2701ZM50.9479 27.3619C51.0169 27.4254 51.0169 27.6874 50.9479 27.9649L50.8258 28.4558L50.2288 27.7773L49.632 27.0989L50.2288 27.1742C50.5572 27.2156 50.8807 27.3 50.9479 27.3619ZM6.90921 31.8934C7.74732 32.1282 8.73021 33.4188 8.73021 34.2843C8.73021 34.8603 6.96936 35.3404 6.01796 35.0236C5.36903 34.8074 4.33667 33.8809 3.55871 32.8162L2.93662 31.9648L3.40888 31.8772C4.18403 31.7332 6.37412 31.7433 6.90921 31.8934ZM58.5358 31.8667L59.0775 31.9648L58.4561 32.8162C57.6797 33.8802 56.647 34.8073 55.9977 35.0236C55.0132 35.3513 53.2823 34.8594 53.2885 34.2533C53.297 33.4201 54.2583 32.1406 55.057 31.8993C55.5483 31.751 57.7819 31.73 58.5358 31.8667ZM19.4853 33.5165C19.7287 34.8002 19.7521 36.142 19.5443 36.8971C19.2592 37.9336 17.8982 39.0577 17.0491 38.9581C16.1461 38.8523 15.6606 36.7682 16.246 35.5105C16.5011 34.9626 19.0784 32.219 19.2116 32.3534C19.2478 32.3899 19.3709 32.9132 19.4853 33.5165ZM44.6646 34.064C45.7113 35.1931 46.0328 35.8477 46.0367 36.8578C46.0406 37.8768 45.523 38.8929 44.9665 38.9581C44.0889 39.0609 42.7482 37.9229 42.4526 36.8242C42.2689 36.1419 42.3455 34.2203 42.6026 33.0617L42.7682 32.315L43.2987 32.7389C43.5905 32.9721 44.2052 33.5685 44.6646 34.064ZM14.8295 34.6181L14.4584 35.3567L14.1946 35.0278C14.0494 34.847 13.9307 34.6565 13.9307 34.6046C13.9307 34.5529 14.1994 34.378 14.528 34.2163C14.8566 34.0546 15.1422 33.9127 15.1629 33.9009C15.1835 33.8891 15.0334 34.2119 14.8295 34.6181ZM48.0848 34.6083C48.085 34.6582 47.9662 34.847 47.821 35.0278L47.5572 35.3567L47.2009 34.6475L46.8447 33.9381L47.4647 34.2278C47.8057 34.3872 48.0848 34.5585 48.0848 34.6083ZM25.3177 37.6781C25.941 39.5612 25.969 40.7643 25.4114 41.7213C24.9756 42.4696 24.0382 43.24 23.5637 43.24C23.2133 43.24 22.6513 42.6815 22.2792 41.9636C21.8663 41.1669 21.9291 39.8072 22.4234 38.8434C22.8962 37.9209 23.4943 37.0222 24.0929 36.3343C24.6329 35.7139 24.687 35.7733 25.3177 37.6781ZM38.5975 37.2124C39.6657 38.7298 39.9921 39.5094 39.9929 40.5453C39.9938 41.5388 39.7582 42.1591 39.1176 42.85C38.9187 43.0644 38.6192 43.24 38.4519 43.24C37.9774 43.24 37.0401 42.4696 36.6042 41.7213C36.2755 41.157 36.2098 40.8854 36.2173 40.1198C36.2264 39.1982 36.5852 37.7665 37.1268 36.4918C37.4079 35.8302 37.4107 35.8282 37.7039 36.0941C37.866 36.2412 38.2681 36.7444 38.5975 37.2124ZM11.0273 38.3286C11.8997 38.6963 13.0449 40.4664 12.7362 40.9702C12.6785 41.0645 12.307 41.2941 11.9105 41.4804C10.5966 42.0977 9.44492 41.8541 8.12175 40.6789C7.30585 39.9542 6.27897 38.7166 6.39577 38.5989C6.79648 38.1944 10.2334 37.9938 11.0273 38.3286ZM55.1478 38.4141C55.4377 38.5016 55.6748 38.6316 55.6748 38.7034C55.6748 38.775 55.1531 39.3681 54.5153 40.0212C53.2308 41.337 52.4032 41.8224 51.449 41.8203C50.7579 41.8187 49.3938 41.251 49.2645 40.9112C49.0448 40.3334 50.1002 38.7208 50.9573 38.3249C51.4622 38.0916 54.2773 38.1516 55.1478 38.4141ZM20.3569 39.7653C20.2751 40.2333 20.1909 40.6392 20.1697 40.6671C20.1484 40.6952 19.9325 40.5754 19.6897 40.4009L19.2483 40.0836L19.8485 39.4666C20.1787 39.127 20.4616 38.8639 20.4772 38.8818C20.4928 38.8997 20.4385 39.2972 20.3569 39.7653ZM42.6587 40.1444C42.6185 40.21 42.4076 40.3565 42.1902 40.47L41.7948 40.6762L41.7022 39.9709C41.6512 39.5829 41.5709 39.1545 41.5238 39.019C41.4768 38.8834 41.7292 39.0543 42.0849 39.3988C42.4407 39.7431 42.6989 40.0787 42.6587 40.1444ZM14.2118 42.3015C14.2118 42.3314 14.0851 42.3893 13.9305 42.4302C13.7758 42.471 13.6846 42.4465 13.728 42.3758C13.8036 42.2523 14.2118 42.1896 14.2118 42.3015ZM48.2877 42.3758C48.3311 42.4465 48.2399 42.471 48.0851 42.4302C47.7569 42.3435 47.7155 42.2472 48.0064 42.2472C48.1179 42.2472 48.2444 42.3051 48.2877 42.3758ZM18.0241 43.962C18.597 44.2525 19.1949 44.9118 19.5317 45.6242L19.7574 46.1019L19.2686 46.5108C18.5376 47.122 17.883 47.3996 17.0228 47.4626C16.34 47.5126 16.1178 47.4524 15.1195 46.9458C14.4978 46.6302 13.6212 46.0344 13.1715 45.6215L12.3538 44.871L13.6905 44.34C15.7993 43.5022 16.9239 43.4042 18.0241 43.962ZM47.0512 43.8901C47.449 44.0002 48.1971 44.2722 48.7138 44.4946L49.6534 44.8991L48.8341 45.6376C48.3834 46.0436 47.5087 46.6332 46.8903 46.9476C45.8973 47.4525 45.6755 47.5126 44.9928 47.4626C44.135 47.3997 43.4779 47.122 42.7544 46.5167C42.2845 46.1237 42.2775 46.1025 42.4665 45.6419C42.7209 45.0226 43.3798 44.2755 43.9243 43.9891C44.8371 43.5092 45.5878 43.4853 47.0512 43.8901ZM37.6131 48.3637C38.3145 49.1469 38.9676 50.5847 38.9964 51.4087C39.0226 52.1584 38.7892 52.4138 38.2117 52.2676C37.9119 52.1917 37.8037 52.0145 37.5572 51.1954C37.2201 50.0758 36.4464 48.9866 35.6236 48.4735L35.0865 48.1385L35.8582 47.9744C37.0194 47.7274 37.0495 47.734 37.6131 48.3637Z" fill="#1B68B2"/>
</svg>
