<svg width="56" height="56" viewBox="0 0 56 56" fill="none" xmlns="http://www.w3.org/2000/svg">
<g clip-path="url(#clip0_32_6286)">
<path d="M42.581 31.29C40.747 35.007 38.262 38.71 35.721 42.035C33.3105 45.1697 30.7331 48.1723 28 51.03C25.2668 48.1724 22.6894 45.1697 20.279 42.035C17.738 38.71 15.253 35.007 13.419 31.29C11.564 27.5345 10.5 24.017 10.5 21C10.5 16.3587 12.3437 11.9075 15.6256 8.62563C18.9075 5.34374 23.3587 3.5 28 3.5C32.6413 3.5 37.0925 5.34374 40.3744 8.62563C43.6563 11.9075 45.5 16.3587 45.5 21C45.5 24.017 44.4325 27.5345 42.581 31.29ZM28 56C28 56 49 36.099 49 21C49 15.4305 46.7875 10.089 42.8492 6.15076C38.911 2.21249 33.5695 0 28 0C22.4305 0 17.089 2.21249 13.1508 6.15076C9.21249 10.089 7 15.4305 7 21C7 36.099 28 56 28 56Z" fill="#1B68B2"/>
<path d="M28 28C26.1435 28 24.363 27.2625 23.0503 25.9497C21.7375 24.637 21 22.8565 21 21C21 19.1435 21.7375 17.363 23.0503 16.0503C24.363 14.7375 26.1435 14 28 14C29.8565 14 31.637 14.7375 32.9497 16.0503C34.2625 17.363 35 19.1435 35 21C35 22.8565 34.2625 24.637 32.9497 25.9497C31.637 27.2625 29.8565 28 28 28ZM28 31.5C30.7848 31.5 33.4555 30.3938 35.4246 28.4246C37.3938 26.4555 38.5 23.7848 38.5 21C38.5 18.2152 37.3938 15.5445 35.4246 13.5754C33.4555 11.6062 30.7848 10.5 28 10.5C25.2152 10.5 22.5445 11.6062 20.5754 13.5754C18.6062 15.5445 17.5 18.2152 17.5 21C17.5 23.7848 18.6062 26.4555 20.5754 28.4246C22.5445 30.3938 25.2152 31.5 28 31.5Z" fill="#1B68B2"/>
</g>
<defs>
<clipPath id="clip0_32_6286">
<rect width="56" height="56" fill="white"/>
</clipPath>
</defs>
</svg>
