<svg width="50" height="50" viewBox="0 0 50 50" fill="none" xmlns="http://www.w3.org/2000/svg">
<path d="M46 14.5H42.5V4C42.4991 3.07203 42.13 2.18233 41.4739 1.52615C40.8177 0.869973 39.928 0.500927 39 0.5H11C10.072 0.500927 9.18233 0.869973 8.52615 1.52615C7.86997 2.18233 7.50093 3.07203 7.5 4V14.5H4C3.07203 14.5009 2.18233 14.87 1.52615 15.5261C0.869973 16.1823 0.500927 17.072 0.5 18V49.5H49.5V18C49.4991 17.072 49.13 16.1823 48.4739 15.5261C47.8177 14.87 46.928 14.5009 46 14.5ZM21.5 46V35.5H28.5V46H21.5ZM32 46V33.75C32 33.2859 31.8156 32.8408 31.4874 32.5126C31.1593 32.1844 30.7141 32 30.25 32H19.75C19.2859 32 18.8408 32.1844 18.5126 32.5126C18.1844 32.8408 18 33.2859 18 33.75V46H4V18H11V4H39V18H46V46H32Z" fill="#1B68B2"/>
</svg>
