<svg width="42" height="56" viewBox="0 0 42 56" fill="none" xmlns="http://www.w3.org/2000/svg">
<path d="M35.581 31.29C33.747 35.007 31.262 38.71 28.721 42.035C26.3105 45.1697 23.7331 48.1723 21 51.03C18.2668 48.1724 15.6894 45.1697 13.279 42.035C10.738 38.71 8.253 35.007 6.419 31.29C4.564 27.5345 3.5 24.017 3.5 21C3.5 16.3587 5.34374 11.9075 8.62563 8.62563C11.9075 5.34374 16.3587 3.5 21 3.5C25.6413 3.5 30.0925 5.34374 33.3744 8.62563C36.6563 11.9075 38.5 16.3587 38.5 21C38.5 24.017 37.4325 27.5345 35.581 31.29ZM21 56C21 56 42 36.099 42 21C42 15.4305 39.7875 10.089 35.8492 6.15076C31.911 2.21249 26.5695 0 21 0C15.4305 0 10.089 2.21249 6.15076 6.15076C2.21249 10.089 8.29927e-08 15.4305 0 21C0 36.099 21 56 21 56Z" fill="#1B68B2"/>
</svg>
