<svg width="16" height="24" viewBox="0 0 16 24" fill="none" xmlns="http://www.w3.org/2000/svg">
<path d="M11.758 12.8243C11.9176 12.4984 12.3598 12.1965 12.7412 12.1561C13.1226 12.1157 13.4701 11.7898 13.5134 11.4335C13.5594 11.0798 13.8812 10.6655 14.2288 10.5152C14.4039 10.4319 14.5464 10.2992 14.636 10.1359C14.7256 9.97259 14.7577 9.78703 14.7278 9.60566C14.6494 9.25449 14.8198 8.76815 15.1011 8.52687C15.2406 8.39685 15.3323 8.22887 15.3632 8.04706C15.3941 7.86526 15.3624 7.67899 15.2728 7.51504C15.1801 7.33874 15.1318 7.14492 15.1318 6.94849C15.1318 6.75205 15.1801 6.55824 15.2728 6.38194C15.3626 6.21803 15.3944 6.03172 15.3635 5.84987C15.3326 5.66801 15.2407 5.50002 15.1011 5.3701C14.8198 5.1263 14.6507 4.64123 14.7278 4.29131C14.7581 4.10957 14.7262 3.92352 14.6366 3.75974C14.5469 3.59595 14.4042 3.4628 14.2288 3.37927C14.043 3.28667 13.8821 3.15592 13.7582 2.99686C13.6342 2.83779 13.5506 2.65455 13.5134 2.46092C13.4826 2.27986 13.3913 2.11252 13.2526 1.98277C13.114 1.85301 12.935 1.76748 12.7412 1.73836C12.5338 1.70431 12.3375 1.62655 12.1671 1.51097C11.9968 1.3954 11.8568 1.24505 11.758 1.07138C11.6688 0.907548 11.5261 0.77446 11.3506 0.691351C11.1751 0.608242 10.9758 0.579417 10.7816 0.609042C10.5732 0.636328 10.3609 0.618884 10.1608 0.558034C9.96064 0.497184 9.778 0.394529 9.62672 0.257868C9.36572 -0.00740732 8.87887 -0.0781473 8.54484 0.0974396C8.21081 0.273027 7.6631 0.273027 7.33042 0.0974396C7.15543 0.0124474 6.95594 -0.018073 6.76106 0.0103337C6.56619 0.0387404 6.38614 0.124587 6.24719 0.255342C6.09602 0.39216 5.91339 0.494918 5.71324 0.555779C5.51309 0.616639 5.3007 0.633992 5.09228 0.606515C4.89832 0.577367 4.69947 0.60657 4.52444 0.689903C4.34942 0.773237 4.20729 0.906386 4.11858 1.07012C3.95765 1.3935 3.51543 1.69541 3.13407 1.73583C2.93993 1.76496 2.76061 1.85064 2.62169 1.98062C2.48278 2.11061 2.39137 2.27826 2.36052 2.45965C2.32383 2.65328 2.24032 2.83654 2.11635 2.99547C1.99238 3.1544 1.83121 3.2848 1.64512 3.37675C1.47029 3.46069 1.3283 3.59407 1.23942 3.75785C1.15054 3.92163 1.1193 4.10744 1.15016 4.28879C1.22454 4.6387 1.0555 5.12504 0.774208 5.36757C0.492918 5.61011 0.414482 6.06487 0.602459 6.37941C0.790436 6.69016 0.790436 7.20176 0.602459 7.51251C0.512748 7.67665 0.481044 7.86313 0.511903 8.04516C0.542761 8.22719 0.634594 8.39539 0.774208 8.52561C1.05685 8.76562 1.22454 9.25196 1.15016 9.6044C1.11927 9.7854 1.15052 9.97089 1.23944 10.1343C1.32836 10.2977 1.47037 10.4306 1.64512 10.5139C1.99403 10.6642 2.31454 11.0786 2.35917 11.4323C2.40515 11.7885 2.75135 12.1144 3.13271 12.1548C3.51408 12.1953 3.9563 12.4984 4.11723 12.8231C4.20663 12.9862 4.34893 13.1187 4.5238 13.2017C4.69867 13.2848 4.89717 13.3141 5.09092 13.2854C5.46688 13.2159 5.98753 13.3726 6.24583 13.6366C6.38514 13.7667 6.56497 13.8523 6.75956 13.8811C6.95414 13.91 7.1535 13.8805 7.32907 13.797C7.66175 13.6214 8.20945 13.6214 8.54349 13.797C8.87752 13.9726 9.36437 13.8993 9.62537 13.6366C9.88638 13.3713 10.4043 13.2159 10.7803 13.2854C10.9745 13.3146 11.1736 13.2858 11.3492 13.203C11.5248 13.1202 11.6679 12.9876 11.758 12.8243ZM7.93763 11.2403C6.71816 11.2403 5.54864 10.7878 4.68635 9.9823C3.82406 9.17685 3.33962 8.08442 3.33962 6.94533C3.33962 5.80624 3.82406 4.71381 4.68635 3.90835C5.54864 3.1029 6.71816 2.6504 7.93763 2.6504C9.1571 2.6504 10.3266 3.1029 11.1889 3.90835C12.0512 4.71381 12.5356 5.80624 12.5356 6.94533C12.5356 8.08442 12.0512 9.17685 11.1889 9.9823C10.3266 10.7878 9.1571 11.2403 7.93763 11.2403ZM2.4944 13.7793L0.813426 22.6837L5.04359 22.0976L8.80449 24L10.4787 15.131C9.12688 15.5002 7.70157 15.5703 6.31572 15.3356C4.92986 15.101 3.62154 14.5682 2.4944 13.7793ZM13.2943 13.84C12.872 14.1267 12.4241 14.379 11.9555 14.5941L10.9439 19.9451L15.5 17.6359L13.2943 13.84Z" fill="white"/>
</svg>
