<svg width="44" height="54" viewBox="0 0 44 54" fill="none" xmlns="http://www.w3.org/2000/svg">
<path fill-rule="evenodd" clip-rule="evenodd" d="M21.2286 0.138879C20.9938 0.217125 19.2193 1.08965 17.2851 2.07802C14.4106 3.54673 13.7259 3.94313 13.5366 4.24872C13.3448 4.55801 13.1269 6.7963 12.2737 17.2207C11.7065 24.1497 11.2422 29.9732 11.2419 30.162C11.2417 30.3656 11.1713 30.5054 11.069 30.5059C10.2465 30.5086 9.29614 30.9895 9.01834 31.5434C8.92179 31.7358 6.96552 40.453 6.96552 40.6906C6.96552 40.7221 5.71821 40.7479 4.19366 40.7479C1.09159 40.7479 0.867862 40.7903 0.300828 41.487C0.00165515 41.8546 0 41.8862 0 47.419C0 52.8722 0.00551674 52.9871 0.284413 53.273C0.440827 53.4334 0.740138 53.6625 0.949655 53.7823C1.33048 53.9999 1.33917 54 22 54C42.6608 54 42.6695 53.9999 43.0503 53.7823C43.2599 53.6625 43.5592 53.4334 43.7156 53.273C43.9945 52.9871 44 52.8722 44 47.419C44 41.8862 43.9983 41.8546 43.6992 41.487C43.1321 40.7903 42.9084 40.7479 39.8063 40.7479C38.2818 40.7479 37.0345 40.7221 37.0345 40.6906C37.0345 40.453 35.0782 31.7358 34.9817 31.5434C34.7039 30.9895 33.7535 30.5086 32.931 30.5059C32.8363 30.5055 32.7586 30.3806 32.7586 30.2282C32.7586 30.0759 32.2921 24.2487 31.7219 17.2789C30.8749 6.92512 30.6437 4.53964 30.4585 4.2407C30.2754 3.94535 29.5539 3.52857 26.7137 2.07728C24.7788 1.0887 22.9906 0.214168 22.7401 0.134128C22.1767 -0.0461223 21.7799 -0.0448551 21.2286 0.138879ZM24.3945 4.68736C26.3312 5.67003 26.6841 5.88956 26.6872 6.11289C26.6891 6.25808 27.1247 11.6751 27.6552 18.1507C28.1857 24.6262 28.6199 30.0552 28.6201 30.2148L28.6207 30.5052H22C15.7879 30.5052 15.379 30.4938 15.3759 30.3204C15.3739 30.2188 15.8164 24.6711 16.3592 17.9923C17.0167 9.90056 17.3975 5.82419 17.5006 5.77488C17.5855 5.73412 18.6172 5.20288 19.7931 4.59412C20.969 3.98548 21.9702 3.49605 22.0182 3.5066C22.0661 3.51716 23.1354 4.04852 24.3945 4.68736ZM32.0925 37.1578C32.5094 39.0744 32.8193 40.6663 32.7815 40.6952C32.6914 40.764 11.3086 40.764 11.2185 40.6952C11.1807 40.6663 11.4906 39.0744 11.9074 37.1578L12.6651 33.6731H22H31.3349L32.0925 37.1578ZM39.931 47.4003V50.885H22H4.06897V47.4003V43.9157H22H39.931V47.4003Z" fill="#1B68B2"/>
</svg>
