<svg width="34" height="52" viewBox="0 0 34 52" fill="none" xmlns="http://www.w3.org/2000/svg">
<path d="M33.237 18.706L32.8382 17.1113C32.5066 15.7848 31.4841 14.7275 30.1695 14.352L26.25 13.2321V11.2076L26.9927 10.8363C27.6007 10.5322 28.026 9.97539 28.1594 9.30857L28.8641 5.78464L29.737 2.29319C29.7656 2.17868 29.7467 2.05756 29.6846 1.95716C29.6226 1.85675 29.5226 1.78562 29.4075 1.76009L22.6363 0.255435C21.819 0.073642 20.9503 0.235996 20.2539 0.700412C19.0987 1.47063 18.5985 2.92839 19.0375 4.24559L19.2617 4.91819L19.9844 9.25505C20.0992 9.94303 20.5401 10.54 21.1639 10.852L21.875 11.2076V13.2321L17.9556 14.352C16.6409 14.7275 15.6184 15.7848 15.2868 17.1113L14.888 18.7061C14.8557 18.8356 14.8843 18.973 14.9657 19.0788L17.5 22.3735V51.1871C17.5 51.4287 17.6959 51.6246 17.9375 51.6246H30.1875C30.4291 51.6246 30.625 51.4287 30.625 51.1871V22.3734L33.1593 19.0788C33.2407 18.973 33.2693 18.8356 33.237 18.706ZM20.8475 9.11118L20.213 5.30439L27.9139 6.07448L27.3015 9.13692C27.2214 9.53704 26.9662 9.87115 26.6013 10.0536L24.0625 11.323L21.5552 10.0693C21.1808 9.88215 20.9164 9.52401 20.8475 9.11118ZM23.8668 12.2035C23.9285 12.2342 23.9954 12.2496 24.0625 12.2496C24.1296 12.2496 24.1966 12.2342 24.2582 12.2035L25.375 11.6451V13.4695C25.0937 14.0862 24.5191 14.3095 24.0625 14.3095C23.6059 14.3095 23.0313 14.0862 22.75 13.4695V11.6451L23.8668 12.2035V12.2035ZM23.5215 23.9528L22.0196 26.0178C21.9136 26.1637 21.829 26.3185 21.7612 26.4779L18.597 22.3644L21.036 20.5352L23.5215 23.9527V23.9528ZM27.089 20.5352L29.528 22.3644L25.0089 28.2393C24.7589 28.5642 24.381 28.7658 23.9719 28.7924C23.5625 28.8182 23.162 28.6679 22.8721 28.3781C22.3733 27.8792 22.3124 27.103 22.7274 26.5325L27.089 20.5352ZM27.125 47.2496C26.0804 47.2496 25.1418 47.7102 24.5 48.4383V33.6871H23.625V48.4383C22.9832 47.7102 22.0446 47.2496 21 47.2496C19.9554 47.2496 19.0168 47.7102 18.375 48.4383V30.6246H29.75V48.4383C29.1082 47.7102 28.1696 47.2496 27.125 47.2496ZM29.75 29.7496H18.375V23.511L21.6026 27.7069C21.6728 28.1801 21.8907 28.6339 22.2534 28.9967C22.686 29.4294 23.2717 29.6704 23.8795 29.6704C23.9291 29.6704 23.9789 29.6688 24.0286 29.6655C24.689 29.6226 25.299 29.2973 25.7025 28.7727L29.75 23.511V29.7496ZM30.0616 21.6707L27.6038 19.8274L28.7914 18.1944L28.0836 17.6798L24.0625 23.2089L20.0414 17.6798L19.3336 18.1944L20.5212 19.8274L18.0634 21.6707L15.7882 18.713L16.1357 17.3234C16.3916 16.2995 17.1811 15.4832 18.1959 15.1932L22.0854 14.082C22.502 14.7702 23.2287 15.1845 24.0625 15.1845C24.8963 15.1845 25.623 14.7702 26.0396 14.082L29.9291 15.1932C30.9439 15.4832 31.7334 16.2995 31.9893 17.3234L32.3368 18.713L30.0616 21.6707H30.0616Z" fill="#1B68B2"/>
<path d="M14.4562 17.5506C14.2501 16.5196 13.7207 15.6074 12.9659 14.9258L13.1278 14.5148C14.2701 11.6589 14.4339 8.45723 13.5888 5.49973L13.1245 3.87448C13.0907 1.73227 11.3376 0 9.18751 0H6.24538C4.6681 0 3.2475 0.936737 2.62629 2.38638C1.46738 5.09032 1.19213 8.03757 1.83044 10.9096L2.60693 14.4022C1.48106 15.0963 0.683653 16.2258 0.418814 17.5506L0.00855087 19.6017C-0.0136654 19.7123 0.0078022 19.8272 0.0683653 19.9224L1.75001 22.5649V27.4809C0.613371 30.3771 0.528136 33.5926 1.51246 36.546L1.77244 37.3258C1.83204 37.5045 1.9992 37.625 2.18751 37.625H3.53493L4.37394 47.6924C3.84442 48.092 3.50001 48.7245 3.50001 49.4375V51.1875C3.50001 51.4291 3.6959 51.625 3.93751 51.625H10.9375C11.1791 51.625 11.375 51.4291 11.375 51.1875V49.4375C11.375 48.7245 11.0306 48.092 10.5011 47.6924L11.3401 37.625H12.6875C12.8758 37.625 13.043 37.5045 13.1026 37.3258L13.3626 36.546C14.3469 33.5926 14.2616 30.3771 13.125 27.4809V22.5649L14.8066 19.9224C14.8672 19.8272 14.8887 19.7123 14.8665 19.6017L14.4562 17.5506V17.5506ZM4.6227 6.88315L4.42692 5.90401L8.33163 3.5612L11.3278 5.05934L11.1437 6.16484C10.7794 8.34956 9.41309 10.2545 7.47019 11.3031C5.98936 10.2399 4.98212 8.67972 4.6227 6.88315V6.88315ZM6.12501 11.3231C6.45436 11.6337 6.81052 11.9203 7.19483 12.1765C7.268 12.2253 7.35259 12.25 7.43751 12.25C7.50437 12.25 7.57134 12.2347 7.63319 12.2039L7.66416 12.1884C8.04564 11.9976 8.4081 11.7773 8.75001 11.5319V13.5014L7.43751 18.0949L6.12501 13.5014V11.3231H6.12501ZM7.95779 26.5067C8.30129 27.0219 8.16158 27.7207 7.64632 28.0642C7.39297 28.2332 7.08962 28.2917 6.7913 28.2286C6.4934 28.1658 6.23919 27.9896 6.07577 27.7327L3.29429 23.3618L5.4945 22.8117L7.95779 26.5067ZM9.38046 22.8117L11.5808 23.3618L8.99776 27.4208C9.07055 26.9302 8.96294 26.4369 8.68581 26.0213L7.96323 24.9375L9.38046 22.8117ZM4.65186 27.125H2.62501V23.9399L4.65186 27.125ZM4.41301 37.625H7.00001V47.6916C6.63391 47.4157 6.18026 47.25 5.68751 47.25C5.52673 47.25 5.37044 47.2686 5.21943 47.3017L4.41301 37.625ZM9.65556 47.3017C9.50458 47.2686 9.34826 47.25 9.18751 47.25C8.69479 47.25 8.2411 47.4157 7.87501 47.6916V37.625H10.462L9.65555 47.3017H9.65556ZM12.25 27.125H10.2232L12.25 23.9399V27.125ZM12.076 22.5836L9.89588 22.0386L11.3015 19.9302L10.5735 19.4448L7.43745 24.1488L4.30152 19.4448L3.57349 19.9302L4.9791 22.0386L2.79908 22.5836L0.900961 19.6009L1.27672 17.7222C1.53863 16.4126 2.43531 15.3345 3.67539 14.8386L5.40002 14.1487L7.01688 19.8077C7.0705 19.9955 7.24215 20.125 7.43751 20.125C7.63286 20.125 7.80451 19.9955 7.85813 19.8077L9.47499 14.1487L11.1996 14.8386C12.4397 15.3345 13.3364 16.4125 13.5983 17.7222L13.974 19.601L12.076 22.5836H12.076Z" fill="#1B68B2"/>
</svg>
