<svg width="19" height="52" fill="none" xmlns="http://www.w3.org/2000/svg"><path d="m18.362 18.523-.399-1.594a3.848 3.848 0 0 0-2.669-2.76l-3.919-1.12v-2.024l.743-.371a2.174 2.174 0 0 0 1.166-1.528l.705-3.524.873-3.491a.437.437 0 0 0-.33-.534L7.763.073a3.101 3.101 0 0 0-2.383.445 3.094 3.094 0 0 0-1.217 3.545l.225.673.722 4.336a2.195 2.195 0 0 0 1.18 1.597l.711.356v2.024l-3.92 1.12a3.848 3.848 0 0 0-2.668 2.76l-.399 1.594a.438.438 0 0 0 .078.373l2.534 3.295v28.814c0 .241.196.437.438.437h12.25a.438.438 0 0 0 .437-.438V22.192l2.534-3.295a.438.438 0 0 0 .078-.373ZM5.972 8.93l-.634-3.807 7.7.77-.611 3.062c-.08.4-.336.735-.7.917l-2.54 1.27L6.68 9.886a1.316 1.316 0 0 1-.708-.958Zm3.02 3.092a.439.439 0 0 0 .391 0l1.117-.559v1.825c-.281.617-.856.84-1.312.84a1.425 1.425 0 0 1-1.313-.84v-1.825l1.117.559Zm-.345 11.75-1.502 2.064c-.106.146-.191.3-.259.46l-3.164-4.113 2.439-1.83 2.486 3.418Zm3.567-3.419 2.439 1.83-4.52 5.875a1.425 1.425 0 0 1-2.28-1.707l4.361-5.998Zm.036 26.715c-1.045 0-1.983.46-2.625 1.189V33.504H8.75v14.752a3.492 3.492 0 0 0-5.25 0V30.442h11.375v17.814a3.492 3.492 0 0 0-2.625-1.189Zm2.625-17.5H3.5v-6.239l3.228 4.196a2.3 2.3 0 0 0 4.1 1.066l4.047-5.262v6.239Zm.312-8.079-2.458-1.843 1.187-1.633-.707-.515-4.021 5.53-4.022-5.53-.707.515 1.187 1.633-2.458 1.843L.913 18.53l.348-1.39a2.97 2.97 0 0 1 2.06-2.13l3.89-1.11a2.275 2.275 0 0 0 1.977 1.102c.833 0 1.56-.414 1.977-1.103l3.89 1.112a2.97 2.97 0 0 1 2.06 2.13l.347 1.39-2.275 2.957Z" fill="#1B68B2"/></svg>