<svg width="15" height="26" fill="none" xmlns="http://www.w3.org/2000/svg"><path d="M4.25 10.602v13.2a.921.921 0 0 0 .119.46c.08.147.2.28.352.392.151.112.331.2.53.26.198.06.41.09.624.088v0c.214.001.427-.028.625-.088s.378-.148.53-.26c.15-.112.27-.245.351-.391a.921.921 0 0 0 .119-.461" stroke="#fff" stroke-width="1.063" stroke-miterlimit="10" stroke-linecap="round"/><path d="M7.5 17.002v6.8a.921.921 0 0 0 .119.46c.08.147.2.28.352.392.151.112.331.2.53.26.198.06.41.09.624.088.214.001.427-.028.625-.088s.378-.148.53-.26c.15-.112.27-.245.351-.391a.92.92 0 0 0 .119-.461v-13.2" stroke="#fff" stroke-width="1.063" stroke-miterlimit="10" stroke-linecap="round"/><path d="M4.25 9.798v4.4a.921.921 0 0 1-.118.462c-.081.146-.2.28-.352.391a1.73 1.73 0 0 1-.53.26c-.198.06-.41.09-.625.087v0A2.111 2.111 0 0 1 2 15.311a1.73 1.73 0 0 1-.53-.26 1.232 1.232 0 0 1-.351-.391.921.921 0 0 1-.119-.462v-4.4c0-.636.343-1.247.952-1.697.61-.45 1.436-.703 2.298-.703h6.5c.862 0 1.688.253 2.298.703.61.45.952 1.06.952 1.697v4.4a.922.922 0 0 1-.119.462c-.08.146-.2.28-.351.391a1.73 1.73 0 0 1-.53.26c-.198.06-.411.09-.625.087v0a2.111 2.111 0 0 1-.625-.087 1.731 1.731 0 0 1-.53-.26 1.231 1.231 0 0 1-.352-.391.921.921 0 0 1-.118-.462v-4.4M7.5 6a2.5 2.5 0 1 0 0-5 2.5 2.5 0 0 0 0 5Z" stroke="#fff" stroke-width="1.063" stroke-miterlimit="10" stroke-linecap="round"/></svg>