<svg width="24" height="24" fill="none" xmlns="http://www.w3.org/2000/svg"><path d="M19.207 11.248C22.02 12.427 24 15.272 24 18.588c0 1.194-1.604 2.009-4.05 2.438C19.445 22.834 15.13 24 10 24c-5.528 0-10-1.285-10-3.334a10.006 10.006 0 0 1 6.92-9.517 6 6 0 1 1 8.23-8.231 4.666 4.666 0 0 1 4.057 8.33Zm-5.334-.177a4.716 4.716 0 0 1-.304-.248 6.095 6.095 0 0 1-.489.326c.107.034.21.07.313.107.158-.068.317-.13.479-.187l.001.002Zm1.296 1.033a10 10 0 0 1 4.782 7.565c.802-.156 1.486-.36 1.99-.59.507-.236.726-.446.726-.49 0-3.645-2.854-6.59-6.36-6.59-.382 0-.763.035-1.138.105Zm3.494 8.324a8.668 8.668 0 0 0-17.33.238c0 .867 3.94 2 8.667 2 4.667 0 8.667-1.165 8.667-2l-.003-.24-.001.002Zm-2.956-16.29c.19.587.293 1.21.293 1.86 0 1.494-.547 2.86-1.45 3.91a3.333 3.333 0 1 0 1.155-5.77h.002ZM10 10.665a4.666 4.666 0 1 0 0-9.332 4.666 4.666 0 0 0 0 9.332Z" fill="#1B68B2"/></svg>