<svg width="21" height="24" fill="none" xmlns="http://www.w3.org/2000/svg"><path fill-rule="evenodd" clip-rule="evenodd" d="M10.5 1.263c-5.11 0-9.265 4.29-9.265 9.6 0 3.102 2.282 6.065 4.737 8.33a31.217 31.217 0 0 0 4.528 3.442l.101-.063a31.219 31.219 0 0 0 4.426-3.38c2.456-2.264 4.738-5.227 4.738-8.329 0-5.31-4.155-9.6-9.265-9.6Zm0 22.106-.305.55-.002-.002-.006-.004-.024-.014-.087-.052a30.367 30.367 0 0 1-1.467-.955 32.46 32.46 0 0 1-3.464-2.761C2.66 17.839 0 14.549 0 10.863 0 4.871 4.694 0 10.5 0S21 4.871 21 10.863c0 3.686-2.66 6.976-5.145 9.268a32.477 32.477 0 0 1-5.018 3.768l-.024.014-.006.004h-.002l-.305-.548Zm0 0 .305.549a.608.608 0 0 1-.61 0l.305-.55Z" fill="#1B68B2"/><path fill-rule="evenodd" clip-rule="evenodd" d="M11 5.333a2.667 2.667 0 1 0 0 5.334 2.667 2.667 0 0 0 0-5.334ZM7 8a4 4 0 1 1 8 0 4 4 0 0 1-8 0ZM11 15.094c-2.512 0-4.711 1.163-5.924 2.906L4 17.434C5.431 15.377 8.03 14 11 14c2.97 0 5.569 1.377 7 3.434L16.924 18C15.71 16.257 13.51 15.094 11 15.094Z" fill="#1B68B2"/></svg>