<svg width="73" height="54" fill="none" xmlns="http://www.w3.org/2000/svg"><path d="M2.078 44.314c0 3.546 3.977 6.05 7.801 4.905.14-.04.284-.09.428-.138 4.623-1.62 14.25-1.706 18.803.887.78.872 1.989 1.433 3.35 1.433a4.67 4.67 0 0 0 2.36-.627l1.808 1.584 1.78-1.56c.669.383 1.468.607 2.323.607 1.287 0 2.434-.5 3.215-1.286 4.446-2.74 14.343-2.682 19.05-1.034l.144.049c3.852 1.282 7.977-1.237 7.977-4.852l-1.259-7.763a58.223 58.223 0 0 1 .028-18.834l1.231-7.458c0-3.66-4.181-6.22-8.084-4.917a5.19 5.19 0 0 0-.144.049c-4.623 1.62-14.25 1.705-18.804-.888-.78-.87-1.988-1.432-3.35-1.432a4.67 4.67 0 0 0-2.36.626l-1.807-1.583-1.775 1.56a4.669 4.669 0 0 0-2.324-.607c-1.282 0-2.434.5-3.215 1.286-4.446 2.74-14.343 2.682-19.05 1.034a5.135 5.135 0 0 1-.144-.05C6.21 4.025 2.083 6.548 2.083 10.159l1.25 7.632a58.136 58.136 0 0 1 .009 18.778l-1.264 7.746Z" stroke="#1B68B2" stroke-width="3" stroke-miterlimit="10" stroke-linecap="round" stroke-linejoin="round"/></svg>