<svg width="24" height="24" fill="none" xmlns="http://www.w3.org/2000/svg"><path d="M23.88.117a.411.411 0 0 0-.575 0L21.798 1.6h-9.471L.42 13.405c-.27.266-.42.621-.42.998s.15.731.42.998l8.325 8.187a1.452 1.452 0 0 0 2.034-.004l11.594-11.71V2.167L23.88.683a.395.395 0 0 0 0-.566ZM21.56 11.55 10.2 23.022a.63.63 0 0 1-.88 0L.995 14.835a.605.605 0 0 1 .002-.866L12.666 2.4h8.318l-1.966 1.933A2.046 2.046 0 0 0 17.898 4c-1.121 0-2.034.897-2.034 2s.913 2 2.034 2c1.122 0 2.034-.897 2.034-2 0-.407-.126-.785-.339-1.101l1.966-1.933v8.584ZM19.118 6c0 .662-.548 1.2-1.22 1.2-.674 0-1.221-.538-1.221-1.2a1.212 1.212 0 0 1 1.743-1.08l-.81.797a.395.395 0 0 0 0 .566.41.41 0 0 0 .575 0l.81-.797c.077.157.123.33.123.514Z" fill="#1B68B2"/><path d="m13.647 15.793-4.315 4.243a.395.395 0 0 0 0 .565.41.41 0 0 0 .575 0l4.315-4.242a.395.395 0 0 0 0-.566.41.41 0 0 0-.575 0ZM15.083 14.377a.415.415 0 0 0-.118.284c0 .104.044.208.118.284a.415.415 0 0 0 .578 0 .403.403 0 0 0 0-.568.431.431 0 0 0-.578 0ZM11.634 10.984a.395.395 0 0 0 0-.566.411.411 0 0 0-.575 0l-4.315 4.243a.395.395 0 0 0 0 .566.41.41 0 0 0 .575 0l4.315-4.243ZM10.196 15.793a.41.41 0 0 0 .575 0l2.877-2.829a.395.395 0 0 0 0-.565.41.41 0 0 0-.575 0l-2.877 2.828a.396.396 0 0 0 0 .566ZM7.894 17.488l-.575.566a.395.395 0 0 0 0 .566.41.41 0 0 0 .575 0l.575-.566a.395.395 0 0 0 0-.566.411.411 0 0 0-.575 0ZM8.182 9.852a.411.411 0 0 0-.576 0l-4.314 4.242a.395.395 0 0 0 0 .566.41.41 0 0 0 .575 0l4.315-4.243a.395.395 0 0 0 0-.565ZM9.332 9.12c.11 0 .212-.044.288-.116a.4.4 0 0 0 0-.568.425.425 0 0 0-.573 0 .397.397 0 0 0-.122.284c0 .104.045.208.118.284a.435.435 0 0 0 .289.116ZM5.594 15.793a.387.387 0 0 0-.118.284.408.408 0 0 0 .814 0 .396.396 0 0 0-.123-.284.426.426 0 0 0-.573 0ZM9.62 16.925a.399.399 0 0 0 0-.568.431.431 0 0 0-.577 0 .417.417 0 0 0-.118.284c0 .104.045.209.118.284a.43.43 0 0 0 .289.116c.11 0 .212-.044.288-.116Z" fill="#1B68B2"/></svg>