<svg width="24" height="24" fill="none" xmlns="http://www.w3.org/2000/svg"><path fill-rule="evenodd" clip-rule="evenodd" d="M10.877.028A12.271 12.271 0 0 0 4.412 2.68 14.996 14.996 0 0 0 2.607 4.5C1.53 5.846.647 7.67.282 9.302.052 10.328 0 10.827 0 12.003c0 1.177.052 1.675.282 2.701.374 1.668 1.279 3.517 2.392 4.885.434.534 1.286 1.379 1.819 1.805 1.348 1.076 3.171 1.958 4.804 2.324 1.026.23 1.524.282 2.7.282 1.178 0 1.676-.052 2.702-.282 1.228-.275 2.833-.96 3.888-1.661a11.97 11.97 0 0 0 4.194-4.77c.588-1.199.922-2.272 1.132-3.64.116-.756.116-2.53 0-3.287-.21-1.368-.544-2.442-1.132-3.64a11.36 11.36 0 0 0-2.335-3.252c-.991-.98-1.899-1.625-3.164-2.246A11.804 11.804 0 0 0 13.69.098c-.59-.09-2.197-.13-2.812-.07Zm2.319.99c1.72.167 3.558.84 5.002 1.83 2.663 1.826 4.374 4.62 4.772 7.79.088.697.088 2.034 0 2.73a11.06 11.06 0 0 1-9.607 9.607c-.697.087-2.034.087-2.73 0a11.06 11.06 0 0 1-9.608-9.606c-.087-.697-.087-2.034 0-2.731A11.064 11.064 0 0 1 11.645.953c.46-.015.947.005 1.55.064Zm-1.773 5.044c-.719.137-1.214.404-1.699.918a3.35 3.35 0 0 0-.753 1.39c-.138.541-.147.531.678.67.41.069.553.077.593.036.03-.03.097-.203.151-.384.25-.842.784-1.287 1.593-1.33 1.428-.075 2.2 1.178 1.542 2.504-.09.181-.36.604-.603.94l-.83 1.15c-.516.715-.644.948-.73 1.325-.088.385-.098 1.354-.015 1.437.08.08 1.332.079 1.385-.002.02-.032.05-.334.064-.67.032-.754.013-.714.958-2.02.948-1.309.993-1.377 1.2-1.823.22-.472.282-.76.282-1.294 0-1.132-.558-2.07-1.507-2.535a4.536 4.536 0 0 0-.677-.267c-.41-.106-1.194-.128-1.632-.045Zm-.166 10.083c-.08.08-.081 1.64-.001 1.72.065.065 1.43.08 1.53.017.046-.029.057-.242.047-.903l-.013-.866-.753-.013c-.546-.01-.768.003-.81.045Z" fill="#1B68B2"/></svg>