<svg width="48" height="48" fill="none" xmlns="http://www.w3.org/2000/svg"><path d="M46.656 13.22 34.779 1.344a2.333 2.333 0 1 0-3.29 3.313l4.177 4.27-12.647 12.74-2.333-2.333a6.999 6.999 0 0 0-9.917 0l-8.05 7.98a7 7 0 0 0-2.053 4.97v8.05a7 7 0 0 0 7 7h8.05a7.001 7.001 0 0 0 4.97-2.054l7.98-8.003a7 7 0 0 0 0-9.917l-2.333-2.333 12.74-12.693 4.27 4.27a2.334 2.334 0 0 0 3.313 0 2.334 2.334 0 0 0 0-3.384ZM25.399 33.964l-8.026 8.026a2.332 2.332 0 0 1-1.657.677h-8.05a2.333 2.333 0 0 1-2.333-2.333v-8.05a2.334 2.334 0 0 1 .676-1.657l8.027-8.027a2.333 2.333 0 0 1 3.29 0l2.333 2.334-2.076 2.1a2.333 2.333 0 0 0 0 3.29 2.333 2.333 0 0 0 1.75.676 2.334 2.334 0 0 0 1.633-.676l2.1-2.077 2.333 2.333a2.335 2.335 0 0 1 0 3.384Z" fill="#1B68B2"/></svg>