<svg width="56" height="56" fill="none" xmlns="http://www.w3.org/2000/svg"><path fill-rule="evenodd" clip-rule="evenodd" d="M43.35 1.78c-1.352 1.396-1.703 2.143-1.966 4.188l-.32 2.488-9.245 9.607-9.245 9.608-2.303-2.25c-3.415-3.335-3.845-3.223-9.17 2.391-2.489 2.623-4.831 5.555-5.387 6.741-1.25 2.67-1.89 6.713-1.545 9.749l.27 2.367-1.555-.492c-2.799-.888-2.991-.553-2.85 4.947L.157 56h55.685l.124-4.876c.145-5.676-.056-5.952-3.438-4.711-2.5.917-4.214.94-5.675.078-1.432-.846-3.588-.846-5.548 0-1.984.856-3.143.856-5.127 0-1.96-.846-4.116-.846-5.548 0-.603.356-1.861.654-2.796.663l-1.7.016 3.125-3.397c3.858-4.194 3.932-4.83.948-8.09l-2.177-2.377 3.493-3.584c1.92-1.972 3.492-3.947 3.492-4.389 0-1.36-1.478-.907-3.287 1.007l-1.711 1.81-1.24-1.227-1.24-1.227 7.123-7.365 7.122-7.366 1.227 1.215 1.227 1.214-2.26 2.362c-1.5 1.57-2.17 2.604-1.993 3.078.444 1.197 1.2.83 3.998-1.946 2.393-2.372 2.943-2.697 5.078-3 1.953-.278 2.697-.653 4.04-2.04 2.646-2.733 2.389-3.922-1.781-8.229-4.17-4.307-5.322-4.572-7.968-1.84Zm6.519 3.45c2.61 2.719 3.266 4.234 2.02 4.663-.674.231-6.944-6.47-6.598-7.05.634-1.06 1.91-.394 4.578 2.387Zm-.718 6.226c-.178.176-.957.385-1.731.464-1.954.2-4.61-2.37-4.245-4.108.533-2.54.576-2.535 3.472.43 1.556 1.592 2.683 3.039 2.504 3.214Zm-12.66 10.128c-.152.409-.066.96.19 1.226.669.69 1.934.059 1.76-.877-.194-1.042-1.6-1.294-1.95-.35Zm-17.395 5.75 1.872 1.896-2.876 3.076c-2.664 2.85-2.866 3.208-2.75 4.869.086 1.24-.122 2.074-.677 2.707-.858.98-.675 2.308.319 2.308.332 0 .942-.387 1.356-.86.58-.662 1.143-.804 2.464-.621 1.63.226 1.858.092 4.713-2.755l3.002-2.992 1.836 1.933c1.011 1.063 1.837 2.098 1.837 2.3 0 .2-1.314 1.773-2.922 3.491-2.375 2.542-3.174 3.126-4.274 3.124-.745-.002-2.294.346-3.442.77-1.808.67-2.34.695-3.947.187-3.16-.998-4.891-1.077-6.68-.305-1.092.471-1.84.574-2.116.29-.234-.242-.434-2.131-.446-4.2-.028-5.235 1.12-7.688 6.099-13.021 2.102-2.253 4.033-4.095 4.292-4.095.258 0 1.31.854 2.34 1.897Zm8.385 3.398-.958 1.053-1.234-1.222-1.234-1.22.957-1.053.957-1.052 1.234 1.22 1.235 1.222-.957 1.052Zm-5.05 5.21c-2.533 2.644-3.461 3.08-4.428 2.082-.952-.983-.557-1.888 1.976-4.532l2.503-2.612 1.232 1.219 1.232 1.219-2.515 2.625Zm-8.387 12.853c1.49.796 4.157.684 7.236-.302 1.605-.514 2.045-.486 3.575.227 1.926.897 4.584.813 6.969-.22 1.226-.532 1.689-.51 3.508.163 2.64.978 4.18.978 6.821 0 1.823-.674 2.28-.695 3.508-.16 2.264.986 5.287 1.11 6.84.28l1.369-.73V53.962H2.13v-2.765c0-2.459.086-2.728.768-2.431 1.704.741 5.232.773 6.51.058 1.639-.916 2.959-.925 4.636-.029Z" fill="#1B68B2"/></svg>