<svg width="24" height="24" fill="none" xmlns="http://www.w3.org/2000/svg"><path fill-rule="evenodd" clip-rule="evenodd" d="M11.531 2.443c0 1.439.019 2.49.045 2.56.108.283.532.365.752.146l.12-.119.012-2.015.014-2.016h.176c.097 0 .42.03.718.068a11.048 11.048 0 0 1 9.603 9.589c.037.298.068.912.068 1.363 0 2.602-.82 4.922-2.46 6.964-1.747 2.174-4.388 3.635-7.213 3.99-.697.087-2.033.087-2.73 0-3.17-.398-5.968-2.109-7.788-4.764a11.03 11.03 0 0 1-1.816-4.827c-.088-.696-.088-2.03 0-2.726.283-2.253 1.293-4.454 2.773-6.041.158-.17.335-.37.391-.445a.473.473 0 0 0-.13-.701c-.28-.164-.435-.085-.96.485C1.531 5.666.492 7.852.11 10.26c-.138.87-.148 2.572-.02 3.4.232 1.51.646 2.77 1.333 4.052A12.16 12.16 0 0 0 6.3 22.58c1.284.686 2.545 1.1 4.058 1.332.756.116 2.53.116 3.287 0 2.732-.42 5.013-1.565 6.89-3.46 1.856-1.875 2.964-4.102 3.378-6.793.116-.755.116-2.527 0-3.282-.542-3.519-2.378-6.425-5.29-8.372-.694-.463-1.962-1.083-2.771-1.355-1.17-.392-2.193-.574-3.487-.62L11.531 0v2.443ZM6.066 6.135l1.286 1.851c1.466 2.115 2.995 4.26 3.399 4.767.254.319.355.407.613.534.26.128.363.152.637.152.805 0 1.423-.62 1.423-1.427 0-.266-.026-.372-.153-.629-.127-.258-.215-.36-.535-.612-.504-.4-2.641-1.92-4.774-3.394L6.108 6.093l-.14-.098.098.14Z" fill="#1B68B2"/></svg>