<svg width="24" height="24" fill="none" xmlns="http://www.w3.org/2000/svg"><path d="m19.78 11.704-.01.04a.243.243 0 0 1-.399.084l-1.885-1.886-6.686 6.686-.034.028a.243.243 0 0 1-.309-.028l-3.6-3.6L1.886 18a.242.242 0 0 1-.343 0L.17 16.628a.242.242 0 0 1 0-.343l6.515-6.514.033-.028a.243.243 0 0 1 .31.028l3.6 3.6 5.143-5.143-1.886-1.885a.242.242 0 0 1 .123-.41l6.857-1.37c.17-.035.32.115.286.284l-1.372 6.857Zm.825-6.595L14.55 6.32l1.735 1.737a.242.242 0 0 1 0 .343L10.8 13.886l-.034.028a.243.243 0 0 1-.309-.028l-3.6-3.6-6.171 6.17 1.029 1.03 4.97-4.972.034-.028a.243.243 0 0 1 .31.028l3.6 3.6 6.685-6.686.034-.028a.242.242 0 0 1 .309.028l1.737 1.737 1.21-6.056Z" fill="#1B68B2"/></svg>