<svg width="24" height="24" fill="none" xmlns="http://www.w3.org/2000/svg"><g clip-path="url(#a)"><path d="M14.881 0A9.118 9.118 0 0 0 7.68 14.713l-1.233 1.232-1.869-1.868a.244.244 0 0 0-.342 0L3.042 15.27a.245.245 0 0 0 0 .342l1.869 1.868-1.347 1.347-1.869-1.869a.244.244 0 0 0-.341 0L.16 18.153a.244.244 0 0 0 0 .342l1.868 1.869L.07 22.323a.24.24 0 0 0 0 .338l1.269 1.27a.24.24 0 0 0 .338 0l7.607-7.608a9.12 9.12 0 0 0 5.597 1.914A9.118 9.118 0 0 0 24 9.12 9.118 9.118 0 0 0 14.881 0Zm4.836 13.954a6.786 6.786 0 0 1-4.836 2.003 6.786 6.786 0 0 1-4.835-2.003 6.785 6.785 0 0 1-2.004-4.835c0-1.827.711-3.546 2.004-4.836a6.786 6.786 0 0 1 4.835-2.003c1.827 0 3.546.71 4.836 2.003A6.786 6.786 0 0 1 21.72 9.12c0 1.826-.71 3.545-2.003 4.835Z" fill="#fff"/></g><defs><clipPath id="a"><rect width="24" height="24" rx="5" fill="#fff"/></clipPath></defs></svg>