<svg width="48" height="37" fill="none" xmlns="http://www.w3.org/2000/svg"><path d="M47.988 14.25v-.197a.163.163 0 0 0-.02-.11V13.9c-.02-.044-.02-.088-.04-.11h-.021l-2.844-7.677A3.01 3.01 0 0 0 44.02 4.71a2.683 2.683 0 0 0-1.596-.522h-7.435V2c0-.348-.128-.682-.357-.928a1.176 1.176 0 0 0-.861-.385H2.895c-.755 0-1.478.323-2.011.897A3.186 3.186 0 0 0 .05 3.75v24.5c0 .812.3 1.591.833 2.166a2.745 2.745 0 0 0 2.01.896H5.86c.28 1.484 1.027 2.818 2.116 3.776 1.088.958 2.45 1.481 3.856 1.481 1.406 0 2.768-.523 3.856-1.481 1.089-.958 1.836-2.292 2.116-3.776h12.431c.28 1.484 1.027 2.818 2.116 3.776 1.088.958 2.45 1.481 3.856 1.481 1.406 0 2.768-.523 3.856-1.481 1.089-.958 1.836-2.292 2.116-3.776h2.965c.755 0 1.478-.322 2.011-.896a3.186 3.186 0 0 0 .833-2.166v-14Zm-5.565-7.438a.426.426 0 0 1 .23.084c.068.05.122.12.156.2l2.153 5.841h-9.974V6.814h7.435Zm-39.528-3.5H32.55v14.876H2.488V3.75c0-.116.043-.227.12-.31a.392.392 0 0 1 .287-.127ZM2.488 28.25v-7.438h30.063v3.938c-1.19.967-2.012 2.366-2.316 3.938H17.804c-.28-1.484-1.027-2.818-2.115-3.776-1.089-.958-2.451-1.481-3.857-1.481-1.406 0-2.768.523-3.856 1.481-1.089.958-1.836 2.292-2.116 3.776H2.895a.392.392 0 0 1-.288-.129.455.455 0 0 1-.119-.309Zm9.344 5.688c-.723 0-1.43-.231-2.031-.664a3.889 3.889 0 0 1-1.347-1.767 4.22 4.22 0 0 1-.208-2.275 4.04 4.04 0 0 1 1-2.016 3.583 3.583 0 0 1 1.873-1.078 3.414 3.414 0 0 1 2.112.224 3.73 3.73 0 0 1 1.641 1.45c.402.648.616 1.41.616 2.188a4.118 4.118 0 0 1-1.076 2.778c-.685.737-1.612 1.154-2.58 1.16Zm24.375 0c-.723 0-1.43-.231-2.031-.664a3.89 3.89 0 0 1-1.347-1.767 4.22 4.22 0 0 1-.208-2.275 4.039 4.039 0 0 1 1-2.016 3.583 3.583 0 0 1 1.873-1.078 3.414 3.414 0 0 1 2.112.224 3.73 3.73 0 0 1 1.641 1.45c.402.648.616 1.41.616 2.188a4.118 4.118 0 0 1-1.077 2.778c-.684.737-1.61 1.154-2.579 1.16Zm9.344-5.688a.455.455 0 0 1-.12.31.392.392 0 0 1-.286.128h-2.966c-.281-1.483-1.029-2.815-2.117-3.772-1.088-.956-2.45-1.479-3.855-1.479-.41 0-.818.045-1.219.132v-8.006h10.563V28.25Z" fill="#1B68B2"/></svg>