<svg width="24" height="24" fill="none" xmlns="http://www.w3.org/2000/svg"><rect x="1" y="1" width="22" height="22" rx="3" stroke="#fff" stroke-width="2"/><path d="M17.725 8.542c.084-.313 0-.542-.397-.542h-1.313c-.334 0-.487.198-.57.416 0 0-.668 1.828-1.614 3.013-.306.345-.445.453-.612.453-.083 0-.204-.108-.204-.421V8.54c0-.374-.097-.541-.375-.541h-2.064a.335.335 0 0 0-.334.339c0 .355.473.437.522 1.437v2.17c0 .475-.076.562-.244.562-.445 0-1.528-1.835-2.17-3.935-.125-.408-.252-.572-.587-.572H6.45c-.375 0-.45.198-.45.416 0 .39.445 2.327 2.073 4.887C9.158 15.052 10.685 16 12.077 16c.834 0 .937-.21.937-.573v-1.322c0-.42.08-.505.344-.505.194 0 .528.11 1.307.952.89.999 1.038 1.447 1.538 1.447h1.312c.375 0 .563-.21.455-.626-.118-.413-.543-1.014-1.107-1.726-.307-.406-.765-.843-.905-1.062-.194-.281-.138-.405 0-.656 0 .001 1.6-2.528 1.767-3.387Z" fill="#fff"/></svg>