<svg width="56" height="56" fill="none" xmlns="http://www.w3.org/2000/svg"><path d="M32.754 28.45c.518-.85 1.053-1.73 1.582-2.637 1.77-3.034 2.095-6.09.965-9.086C33.023 10.683 25.408 7 23.645 6.413L22.405 6l-1.934 3.87.934.763c.01.009 1.047.915 1.116 2.288.06 1.173-.584 2.44-1.91 3.767-.921.921-1.932 1.812-3.003 2.755C13.105 23.409 8 27.906 8 36.413l.003.348a14.254 14.254 0 0 0 4.374 10.028 14.518 14.518 0 0 0 10.154 4.11h8.673l-1.071-2.172c-4.35-8.828-1.274-13.88 2.62-20.277ZM22.53 47.886c-6.234 0-11.4-5.016-11.515-11.181a17.747 17.747 0 0 1-.003-.293c0-7.145 4.366-10.99 8.587-14.709 1.059-.932 2.153-1.896 3.142-2.885 1.954-1.954 2.892-3.99 2.789-6.049a6.117 6.117 0 0 0-.68-2.5c2.622 1.432 6.36 4.148 7.63 7.521.805 2.134.56 4.262-.748 6.505-.515.883-1.043 1.75-1.553 2.588-3.737 6.137-7.282 11.958-3.715 21.003H22.53Z" fill="#1B68B2"/><path d="M47.547 36.316c-.025-.1-.05-.2-.078-.3-1.087-3.986-7.106-9.112-7.788-9.683l-1.371-1.147-.9 1.545c-2.048 3.522-3.806 6.734-4.572 10.378-.874 4.156-.286 8.38 1.799 12.914l.403.877h1.024a11.787 11.787 0 0 0 9.351-4.567 11.6 11.6 0 0 0 2.133-10.017Zm-4.508 8.163a8.787 8.787 0 0 1-6.069 3.362c-2.97-7.148-1.217-12.02 2.131-17.997 2.227 2.07 4.94 5.056 5.46 6.965a8.605 8.605 0 0 1-1.523 7.67Z" fill="#1B68B2"/></svg>